/* XPM */
static char *greystone[] = {
/* columns rows colors chars-per-pixel */
"64 64 241 2 ",
"   c #171619",
".  c #19161A",
"X  c #1B191C",
"o  c #171416",
"O  c #150E14",
"+  c #281D1C",
"@  c #2B201F",
"#  c #1E1B20",
"$  c #272326",
"%  c #382927",
"&  c #2E2C31",
"*  c #312B31",
"=  c #39353A",
"-  c #3F312B",
";  c #442C28",
":  c #47322D",
">  c #573835",
",  c #4E3632",
"<  c #683D37",
"1  c #703C34",
"2  c #5B413C",
"3  c #6A433D",
"4  c #7A453D",
"5  c #74433A",
"6  c #3E3B41",
"7  c #464245",
"8  c #564A48",
"9  c #5B545A",
"0  c #524A55",
"q  c #6A4944",
"w  c #754945",
"e  c #7C4B43",
"r  c #784B46",
"t  c #79544C",
"y  c #785953",
"u  c #685754",
"i  c #79625C",
"p  c #675E69",
"a  c #6A6267",
"s  c #786A67",
"d  c #766C74",
"f  c #747076",
"g  c #5E5C65",
"h  c #874C3C",
"j  c #93543F",
"k  c #8A523F",
"l  c #A3583D",
"z  c #844C45",
"x  c #8B4E44",
"c  c #884D4A",
"v  c #934E45",
"b  c #84534C",
"n  c #8B534B",
"m  c #8A5344",
"M  c #93544C",
"N  c #9B554B",
"B  c #965848",
"V  c #855952",
"C  c #8B5954",
"Z  c #935751",
"A  c #945A53",
"S  c #9A5B55",
"D  c #985A58",
"F  c #8A4C51",
"G  c #A4584C",
"H  c #A45B52",
"J  c #A85D55",
"K  c #B05D51",
"L  c #936A4C",
"P  c #9A694D",
"I  c #96644B",
"U  c #89655B",
"Y  c #986858",
"T  c #9C755C",
"R  c #8F6047",
"E  c #A4694D",
"W  c #A6674A",
"Q  c #A46455",
"!  c #A4645B",
"~  c #AB645B",
"^  c #A66C55",
"/  c #B4695B",
"(  c #A47356",
")  c #A57558",
"_  c #B57759",
"`  c #925D61",
"'  c #876B64",
"]  c #8C726C",
"[  c #9E7A69",
"{  c #9B7468",
"}  c #857879",
"|  c #987B74",
" . c #976B68",
".. c #A86763",
"X. c #B46C64",
"o. c #A57C6C",
"O. c #A67868",
"+. c #B87567",
"@. c #A67973",
"#. c #B27471",
"$. c #C47B71",
"%. c #C2796D",
"&. c #D17E59",
"*. c #9A827A",
"=. c #87807D",
"-. c #AA846A",
";. c #A7806C",
":. c #A88678",
">. c #B28A75",
",. c #B58E75",
"<. c #D0856A",
"1. c #7E7B80",
"2. c #897C83",
"3. c #BC7F81",
"4. c #7F848B",
"5. c #8B8387",
"6. c #9C9397",
"7. c #988B8D",
"8. c #AA8C84",
"9. c #A78B86",
"0. c #B38D87",
"q. c #A9928B",
"w. c #B59889",
"e. c #AA9A96",
"r. c #B69A96",
"t. c #A88C92",
"y. c #ABA39B",
"u. c #BAA495",
"i. c #BAA39B",
"p. c #BBA18B",
"a. c #A89DA9",
"s. c #AAA4A7",
"d. c #B6ABA4",
"f. c #B6A7A4",
"g. c #BCB5AC",
"h. c #BBB4A9",
"j. c #B7ABB5",
"k. c #BCB4B7",
"l. c #A5A8B7",
"z. c #9AA1B0",
"x. c #C39B94",
"c. c #C3AC9A",
"v. c #C4A698",
"b. c #C8B29E",
"n. c #C3AAA6",
"m. c #C5B3A4",
"M. c #C9B5A5",
"N. c #C3B9AD",
"B. c #CBBBAD",
"V. c #C9B6AA",
"C. c #C4BCB3",
"Z. c #CBBCB2",
"A. c #C7B6B7",
"S. c #D4BAAF",
"D. c #D1C1AF",
"F. c #CDC2B4",
"G. c #CCC4BB",
"H. c #C7C2B9",
"J. c #D3C5B3",
"K. c #D2C9B6",
"L. c #D2C6B9",
"P. c #D4CBBD",
"I. c #D8CBBB",
"U. c #D8D1BD",
"Y. c #CEC3AD",
"T. c #E6C9B9",
"R. c #BBB7C5",
"E. c #C5BCC4",
"W. c #CBBAC4",
"Q. c #C4BDCA",
"!. c #CABAC6",
"~. c #D3BDC8",
"^. c #BEC5D1",
"/. c #BBC0C9",
"(. c #CECAC3",
"). c #CAC3CB",
"_. c #C9C3C6",
"`. c #D3CCC3",
"'. c #D3C4CD",
"]. c #D5CDCB",
"[. c #D9CBC5",
"{. c #DAD4C5",
"}. c #D6D2CC",
"|. c #DBD5CB",
" X c #DED9CE",
".X c #D7D0C4",
"XX c #C3C5D2",
"oX c #CCC4D5",
"OX c #CDCAD6",
"+X c #CCC5D9",
"@X c #CACBD8",
"#X c #D3CCD5",
"$X c #DACCD3",
"%X c #D3CDDA",
"&X c #D4C7D4",
"*X c #C8D3DC",
"=X c #DCD4D4",
"-X c #DDD9D4",
";X c #D5D2DC",
":X c #DBD4DC",
">X c #DCDADB",
",X c #D5D2D2",
"<X c #E1D9CE",
"1X c #E1CCD4",
"2X c #E3DCD3",
"3X c #E1D5DA",
"4X c #E3D8D9",
"5X c #E7CBC0",
"6X c #E6E0D6",
"7X c #E6E2DB",
"8X c #EAE5DC",
"9X c #EDE8DE",
"0X c #CECDE1",
"qX c #CCD8E3",
"wX c #D5D3E3",
"eX c #DBD5E3",
"rX c #DCD9E5",
"tX c #DBD6E9",
"yX c #DDDBEC",
"uX c #D3DCE8",
"iX c #DEDDF1",
"pX c #D1CEE2",
"aX c #E1D9E6",
"sX c #E1DCEA",
"dX c #EDDDE6",
"fX c #E1DEF2",
"gX c #D6E2ED",
"hX c #DEE0F1",
"jX c #EEEAE3",
"kX c #E8E4E6",
"lX c #F1EDEA",
"zX c #F2EEE6",
"xX c #F6F2EC",
"cX c #F9F4EE",
"vX c #F4F0E6",
"bX c #E3E1F3",
"nX c #EAE6F8",
"mX c #ECE7F8",
"MX c #F1ECFC",
"NX c #FBF6F1",
"BX c #FDFAF4",
/* pixels */
"2X2X6X6X6X6X2X8XS.) ..j.XXXXqXqXqX*XqXuXuXgXgXhXbXj.p 7 7 7 = a s.C.c.&.<.T.NXNXNXNXNXNXNXNXNXNXNXNXNXNXNXNXNXxX`.G.F.A.d.q.q.y.",
"2X2X2X2X6X6X2X8XS.E o.E.@XXX*XwX*XXXuXuXgXgXgX*Xs.9 & $ $ $ $ * 7 p U _ <.T.NXNXNXNXNXNXNXcXNXNXNXNXNXNXNXNXNXxXP.H.F.N.i.e.e.y.",
"<X2X2X2X6X6X2X8Xb.E +.'.;X%X;XwXqX*XqXuXgXbX*Xf 7 $ X X X X X # $ * - t >.T.cXcXcXcXcXxXxXxXxXcXNXNXNXNXNXNXNXvXP.Z.Z.N.d.y.y.d.",
"2X2X2X2X2X6X2X8Xv.E #.'.:X:X:X:XuXqXqXuXgX).4.& X X   X X X X X $ # $ : U .XlXlXlXlXlXlXlXlXlXlXxXcXNXNXNXNXNXvXP.F.Z.A.s.e.y.d.",
"2X2X2X2X2X2X2X6Xx.E :.'.:X:X3X3XuXqXqXuXXX1.& X X X o         X   X $ + 7 G.kX8XlXlXlXlXlXlXlXlXvXxXcXNXNXNXNXzX`.F.Z.A.e.| q.s.",
"-X2X<X<X2X2X2X2Xx.E ,.'.=X=X=X>XuXqX*XuX6.& X X     o     o o o o X + # & s.2X2XjXlXlXlXlXlXlXlXvXxXxXNXNXNXNXlX(.G.G.A.q.U | e.",
" X-X2X2X2X2X2X2Xx.E 0.$X:X-X:X;X*XqXqXXX0 X X       o   o   X + + @ : , % } |. X8XlXlXlXlXlXlXjXjXlXxXNXNXNXNXlX(.G.G.A.q.U U *.",
" X X2X2X2X2X2X<X,.E 0.#X:X3X3X;X*X*XqX7.& X   o     o o X : > 3 w e U { y 8 N. X2XjXlXjXjXjXlXlXjXjXxXcXNXNXNXjX(.G.G.B.:.L L | ",
" X<X2X2X2X<X2X|.,.E t.#X:X:X:X;X*X*X*Xa X X     O o + ; < z v N M N S { { q q.|.2X8XlXjXjXjXlXlXjXjXlXcXNXNXNXjX(.G.G.B.>.L L [ ",
"|.<X2X2X<X<X2X|.+.E e.oX;X%X%X@X;XwXXX7   X o o + ; 3 c M G G G N N M Y  .y ] P..X2XlXjXjXjXjXjXlXzXjXcXNXNXNXjX(.G.L.B.>.L L ;.",
"{. X X X<X<X2X{.+.E e.XX@X@XXX@X:X:X).7     o % < e S H G J J J G N M A Y U U V.P.|.jXjXjX9XjXjXjXjXjXxXcXNXNXjX(.G.L.B.>.L P ;.",
"{.|.|. X<X<X2XI.+.E r.^.XX^.^.@X:X3X#X0   o ; 5 x N H G H ~ / / J H N A Y { ' y.P.{.6X8X8X8X9X9X9XjXjXxXcXNXNX9X(.G.G.Z.>.L T ;.",
"M.M.M.M.B.J.{.J._ ^ d.^././.^.@X3X3X$Xu X @ e M v N H J ~ ~ / / / X.~ I U '  .0.P.`.2X8X8X8X8XjX8XjXlXxXNXNXNXjXG.G.G.B.:.L ( ;.",
"I I W E ^ o.D.S.( ^ d.^.R.R.R.XX:X1X$Xu X % z v v N H ~ X.X.+.%.%.%.+.R 3 q U 9.i.Z.|.8X8X8XkX4XG.|.>X_.7X-X|.8XP.G.G.B.;.L ( ;.",
"j j l l W ( V.M.( ( d.XX).R.R.E.~.1X$Xd $ : w v v v G +.$.$.$.$.$.+.b > > w t ] U { L.<X8X8XjX6.u 8 d u 0 f 8 7.|.G.G.B.;.L ( ;.",
">.>.>._ _ ( V.M.^ ( j.XX).Q.R.W.~.1X=X6.* > e c v N Q $.<.+.$.$.X.A 3 3 q 3 q C Y n i.`.2X8X8X}.d.* f.7.= ].9 a |.G.P.B.o.L ( ;.",
"B.Z.M.>./ ( B.i.E ( k.XX).Q.E.~.$X=X3XA.8 > e c v M b V A S X.+.H 4 w w > < w V Y x 8.G.|.8X8XkXd =.`.9 s.k.0 k.].`.P.B.[ L ( ;.",
"P.`.Y.-./ ) B.w.E O.k.XX).Q.E.~.$X:X3X].a > e x c 4 q q < z N ~ N 5 e b 5 z B I Y n :.F..X8X8X4Xa `.(.s lXy.=.8X].`.`.B.[ L ( ,.",
"P.P.Y.-.^ O.B.w.E o.R.XX).Q.E.'.$X:X-X=X5.> z n h z t q q 5 c H Q h 4 Z S H ~ Q Y z @.Z.P.6X9X Xd  XA.5.xXe.6.8X].`.`.B.[ L ( ,.",
"P.{.M._ E o.D.w.E o.R.Q.~.Q.W.&X$X:X-X4Xd.q b c h A t 3 t e h G Q N z n ! / / ~ Y 4  .B.G.2X8X2X} |.G.5.lXs.7.kX].].].B.[ L T ,.",
"U.U.M._ W o.J.,.E @.R.).W.W.~.'.&X:X:X3XA.t e c n 4 1 5 e c M G K H h c Q +./ / ! e ' B.G.2X8X8X-X7X7X7XlXkX7X3X=X X|.B.T L ( >.",
"P.U.M._ W ;.J.,.P :._.E.Q.$X$X$X'.#X:X].| r e z z c Z M N Q H v G / H M M H / Q I b | B.G.2X8X8X8X6X8XjXjXlXjX3X=X=X|.B.T L ( >.",
"K.U.c.) N ,.J.>.E 8.W.Q.).$X$X$X'.'.:XA.C S z z c S Q Q / X.G N ~ +...n c M N N n Y i.N.G.2X8X7X6X2X8XjXjXjXjX3X-X=X-XN.T L ( ;.",
"K.P.c.^ M 8.D.;.P 8.E.W.'.].$X$X$X'.=X_.` G v z c ~ +.+.+.~ H H H X.A 5 4 z z M b { V.N.G.2X6X2X6X2X8XjXjXjXkX3X-X-X-XN.T L ( ;.",
"K.P.u.E B w.V.o.P 0.E.~.'.].].$X:X$X=X$X@.H N n c ~ +.<.+.H ..H c M e 1 1 4 4 b b o.V.N.G.2X2X2X2X2X8XjXjXjXkX3X-X-X-XA.T L ( ;.",
"K.K.w.W N 0.V.O.Y w.).Q.).'.'.$X3X=X=X3Xv.! Q M c S ~ +.~ ~ X.N c x e 4 e 5 5 b n | m.V.F.2X2X2X2X2X7XjXjXjXkX4X-X-X-XA.T L ( ;.",
"K.J.,.W I w.M.( ! r.E.R.W.W.~.1X3X3X3X3X`.O.S Z c v N H H ..S x F A A A { V 3 n n | V.h.G.2X6X2X2X2X7X9X9XkXkX7X-X-X-Xn.Y T ( ;.",
"K.J.,.W P u.m.Y ! r.Q.j.A.W.~.1X3X3X3X>X2Xr.C C x c v v M n c c D { 8.r.S.@.r n b >.V.h.G.2X7X2X2X2X7X9X8X8X7X>X>X-X-Xd.U @.T ;.",
"K.F.,.W P c.m.( ( f.).k.A.W.~.$X=X:X>X>X>X|.r.| ' b c c c < q :.r.n..XT.x.` c b t 0.N.N.P.2X6X2X2X-X7X8X8X7X7X>X-X-X=Xy.' :.T o.",
"K.B.;.E P c.q.: , d p 9 } p 9 6.=X:X>X>X>X>X].A.d.U c v c w t 0.n.n.v.3. .A V b t 0.A.N.`.2X2X2X-X-X7X8X7X7X3X-X-X}.=Xe.' :.[ | ",
"K.B.o.E P c.9.q % * 5.0 * 5.0 6 @X:X>X:X>X}.|.,XR.| n M n n V Y  .O.#.#.H M b b w *.A.N.P.2X2X-X|.|.2X7X7X4X-X=X}.}.=Xe.' 9.:.*.",
"J.M.O.E Y m.w.y % u s.6 9 s.7 9 @X:X>X:X>X=X=XeX@Xe.C M n M Z M M S H S M z c b q ' V.h.G.2X2X X}.`.-X4X4X=X=X=X].}.}.e.' *.8.9.",
"J.m.) E { M.w.3 = j.5.6 s.5.7 j.#X:X>X>X>X>XrXrX:XZ.U b b n Z S Z A S c z z c r < u e.h.N.`.,X}.}.`.-X=X=X-X=X|.].].`.9.i ] *.q.",
"F.c.( E [ V.w.; 8 k.9 g Q.d d #X#X>X>X>X>X:XrXrX>X}.| e e b M Z A A Z n x n C q > 2 s e.h.A.E.H.G.(.-X-X-X-X}.}.].(._.7.u U ] 9.",
"F.c.( P [ M.>.> 8 2.0 d R.2.2.oX}.>X>XaX:X%X;XwXrX7Xe.r e e c V A S ! ! H M b > , > > i d.G.h.h.h.H.=X-X=X|.}.(.(.(.G.7.q y ' | ",
"G.c.^ P o.M.>.> > d 7 p j.d a ).#X>X3X>X).Q.oXXXXXqXR.V w w w t V A ....A n 3 ; > > > u A.4X).d.y.d._.}.|.}.(.(.G.G.F.*.q y ' } ",
"F.p.^ P o.M.;.x y 5.6.a.a.a.a.j.XX>X>X}.XXQ.XXR.l.l.l.U b w w t q q b C t > % % > < > } 4XbX7X`.k.d.h.A.G.G.G.G.A.A.A.*.u 8 s ' ",
"F.w.^ P :.M.o.x y t.f.A.W.E.W.E.&X:X:X:X%X@X@XXXR.l.z.| C n w w q : = , : % % > 1 1 q A.mXbXbXaX$X).G.A.g.N.A.N.h.h.h.*.u 2 ' | ",
"F.,.P P >.m.o.h b 9.q.r.n.V.A.~.`.|.$X$X3X:X:X:X#XXXR.r.Y Z b e w ; + + ; > < 3 4 w 2.aXnXsXsXsXaXeX=X(.A.N.h.h.h.h.d.| y > s 7.",
"F.>.P Y 0.m.Y 5 4 V U Y { :.8.0.w.r.r.n.n.V.A.Z.W.).'.A.{ S Z n n < : ; < t n c e ' ~.mXbXyXrXrXrXrXeX:X]._.C.A.h.h.y.| i > i 7.",
"F.>.P Y 0.n.C 1 1 1 1 5 5 e z c k x n Y Y { O.o.:.8.0.i.:.S S A M x e r A S S B Y f.nXnXfXyXrXrXrXeXeXrX3X=X#X_.A.h.y.| ] u y *.",
"B.:.P Y 0.m.{ U V V b V b z e e h h e 4 x k k h h c C i.r.A ! N S S S ! ! ! ! O.r.dXnXfXyXtXeXeXeXeX:XeX:X3X3X=X_.A.y.*.|  .' | ",
"B.o.P Y r.B.m.m.c.c.u.u.u.w.8.8.8.>.>.:.;.[ [ Y Y U t.3Xe.A Q Q ! ~ ~ ~ ! ..@.n.sXnXfXyXyXtXeXeXeX:X:X:X:X:X:X>X=X`.Z.q.| @.@.8.",
"V.o.E Y u.Z.Z.B.B.Z.F.J.L.L.`.`.P.`.P.L.P.L.J.Z.N.n.#XsXj.A Q Q ~ +.X.! X.8.W.sXnXfXyXyXrXeXwXwX:X:X;X:XeX:X:X:X:X:X'.A.e.| :.8.",
"m.O.E T c.Z.B.Z.Z.F.L.P.P.P. X X{. X X<X<X<X2X2X=X:XrXsXoX| A Y ! +.@.:.v.'.bXnXbXyXyXyXrXeXwX;X:XeX;X:X;X:X:X:X;X:X=X).A.e.*.8.",
"c.Y E T n.Z.B.Z.F.G.J.J.P..X{.{.{. X X<X<X2X2X:XrXaXrXaXyXj.t.t.t.x.A.'.aXnXnXbXiXiXiXyXrXeXeXeXeXeXeXeX;X;X:X:X#X,X:X#XW.j.9.8.",
"u.P E { n.Z.B.Z.F.F.J.J.P.{.{.{.|. X X X=X2X:X:XeXaXaXaXfXrX%X%X%XeXbXMXMXnXbXfXiXfXfXyXyXeXeXeXeXeXeXeX;X;X:X;X#X#X:X#X~.W.f.q.",
"u.P Q [ m.Z.B.Z.J.F.F.K.P.{.{.{. X<X X|.=X:X:XeXrXaXaXaXfXbXmXMXMXMXMXmXnXbXfXfXiXfXfXyXyXwXeXeXeXeXeXeX;X;X;X%X%X#X;X:X#X).A.s.",
"u.P ! [ m.Z.B.B.J.F.J.J.P.{.{.{. X X X=X=X:XeXeXtXaXaXaXsXbXnXnXmXmXnXnXbXfXfXfXfXfXiXyXyXrXeXeXeXeXwX;X;X;X;X;X@X@X#X:X:X).A.A.",
"w.L P o.m.B.B.B.F.J.J.J.P.U.{. X X=X=X=X:X:XeXaXaXaXyXaXaXbXbXbXbXbXfXfXfXfXfXfXiXiXyXyXrXrXyXyXeXeXwXwX;X;X;X%X@X#X@X;XeX;XA.A.",
",.A P :.m.B.B.B.F.J.J.J.P.U.{. X X:X:X:X:XeXaXaXaXaXyXyXyXyXyXsXfXfXfXfXfXfXfXfXiXyXyXyXrXeXyXyXeXeXwXwX%X;X%X%X#X#X%X%X%X#XE.e.",
":.B P :.m.B.B.Z.F.F.J.J.I.{.{.].=X:X:XrXaXaXaXaXaXaXyXyXyXyXyXyXfXfXfXbXbXiXfXfXyXyXyXyXrXeXyXyXeXeXwXeX;XwX%X%X;X#X#X#XoX#Xs.9 ",
":.v I :.V.B.B.B.J.J.J.K.I.{.|.$X:XeXeXaXaXaXsXyXyXyXyXyXsXyXyXyXfXsXbXfXfXfXfXyXyXyXyXyXyXeXyXyXeXeXeX:X;X;X%X#X%X%X@XoXoX).d * ",
"o.x B 8.S.B.B.B.J.J.J.J.I.{.=X=X:XrXaXsXsXsXsXyXyXyXyXyXyXaXsXyXyXsXbXfXfXfXfXyXyXyXyXyXyXtXrXrXeXeXeX:X;X;X%X#X%X%X@XoXoXs.* & ",
"Y h B 0.V.B.B.D.D.J.J.J.P.{.$X:XeXyXsXfXfXfXaXyXyXyXyXyXyXbXbXyXyXfXbXbXfXfXfXyXyXyXyXyXtXeXtXeXeXeX:X;X;X:X%X#X#X#X#XoX).d   & ",
"Y h B w.m.B.B.D.J.J.J.J.P..X$XeXaXfXfXfXfXfXaXyXrXyXsXyXyXfXfXsXfXfXhXhXhXfXiXyXyXyXyXyXtXwXtXtXeXeXwX;XwXeXoX#X#X%X+XoXj.6   & ",
"I h B w.M.M.B.Y.J.J.J.K.P.].eXtXyXiXaXaXsXfXaXyXyXaXiXiXsXfXfXfXiXfXfXbXfXfXiXyXyXyXyXyXwXpXtXtXeXwXwXwXwX%XoX+X&XoXoXoX5.#   * ",
"L j L p.M.M.B.D.J.J.J.J.`.=XeXyXyXiXyXaXfXiXaXaXyXaXfXfXbXfXfXiXiXfXfXfXfXyXiXyXyXyXyXyXwX%XeXwXwXwXeXwXwX+XoXoX&XoXoXR.9     = ",
"I v Y u.m.M.B.B.J.J.J.J.].:XeXyXyXiXyXyXbXfXaXaXsXaXsXhXbXfXfXfXiXfXfXfXyXyXiXiXiXyXyXyXwX@XwXeXtXpXwXwX@XoX+X+X+XoXoXj.6 O   = ",
"B v Y u.m.M.B.B.D.D.J.P.$XeXeXyXyXiXyXyXfXyXaXaXyXaXyXgXbXfXfXfXfXfXfXfXyXyXfXfXiXyXyXyXwX@XwXwXwX0XwX@X+XoX+X+X+XoXoX6.$ O   = ",
"B v Y u.m.M.B.B.D.J.J.P.$XeXrXyXiXiXyXyXiXyXaXyXyXaXgXgXfXfXfXfXfXfXfXfXfXsXfXfXiXyXyXyXqX@XwX@XpXwX%X+X+XoX+X+XoXoXQ.f   O   = ",
"v v T u.m.M.B.B.J.J.J.L.$XeXyXyXfXfXfXfXiXyXaXyXyXsXhXiXfXfXfXfXiXhXfXfXfXfXfXfXfXyXyXyX0X@XwX@X0XwX%X+XoXoX+XoXoXoXR.a o O X 6 ",
"j j [ c.M.M.B.B.J.J.J.J.$XeXyXyXfXfXyXiXiXyXaXaXaXfXhXiXfXbXfXfXyXhXfXyXiXfXfXfXfXyXyXyX0X@XwX@X0X0X0X+XoXoX+XoXoXoXj.9     X 7 ",
"j h o.m.M.M.B.B.D.J.J.L.#XeXaXaXiXiXaXyXiXiXaXaXaXfXfXiXiXbXbXfXyXiXiXiXyXfXfXiXfXyXyXyX0X@XpX+X0X+X0X+XXXoX+XoXoXoXj.0   # $ 0 "
};
