/* XPM */
static char *greystone[] = {
/* columns rows colors chars-per-pixel */
"64 64 159 2 ",
"   c #6F6E69",
".  c #72726E",
"X  c #767672",
"o  c #787772",
"O  c #7B7A76",
"+  c #7E7E79",
"@  c #807F7A",
"#  c #7F807B",
"$  c #83827D",
"%  c #868681",
"&  c #888782",
"*  c #878884",
"=  c #8A8A85",
"-  c #8E8E88",
";  c #8F8E88",
":  c #8E8E89",
">  c #8F8E89",
",  c #8F8F89",
"<  c #8C8D8A",
"1  c #8D8D8A",
"2  c #8D8D8B",
"3  c #8D8E8A",
"4  c #8D8E8B",
"5  c #8E8E8A",
"6  c #8F8E8A",
"7  c #8E8F8A",
"8  c #8F8F8A",
"9  c #8E8E8B",
"0  c #8E8F8B",
"q  c #8F8F8B",
"w  c #8D8D88",
"e  c #8E8F8C",
"r  c #8F8F8C",
"t  c #8E8E89",
"y  c #908F89",
"u  c #908F8A",
"i  c #908F8B",
"p  c #908F8A",
"a  c #8F908B",
"s  c #8F908C",
"d  c #8F908D",
"f  c #90908A",
"g  c #91908A",
"h  c #90908B",
"j  c #91908B",
"k  c #91918B",
"l  c #92918B",
"z  c #90908C",
"x  c #91908C",
"c  c #90918C",
"v  c #91918C",
"b  c #90908D",
"n  c #91918D",
"m  c #92918C",
"M  c #92918D",
"N  c #91928D",
"B  c #92928C",
"V  c #93928C",
"C  c #92928D",
"Z  c #93928D",
"A  c #93938D",
"S  c #91918E",
"D  c #91928E",
"F  c #92928E",
"G  c #93928E",
"H  c #92938E",
"J  c #93938E",
"K  c #92928F",
"L  c #93938F",
"P  c #94928D",
"I  c #94938D",
"U  c #94938E",
"Y  c #94938F",
"T  c #93948F",
"R  c #94948E",
"E  c #95948E",
"W  c #94948F",
"Q  c #95948F",
"!  c #95958F",
"~  c #96958F",
"^  c #92918D",
"/  c #929390",
"(  c #939390",
")  c #949490",
"_  c #959490",
"`  c #949590",
"'  c #959590",
"]  c #959591",
"[  c #969590",
"{  c #969591",
"}  c #959691",
"|  c #969690",
" . c #969691",
".. c #979691",
"X. c #979791",
"o. c #959692",
"O. c #969692",
"+. c #979692",
"@. c #979792",
"#. c #969693",
"$. c #969793",
"%. c #979793",
"&. c #969694",
"*. c #969591",
"=. c #989791",
"-. c #989792",
";. c #989793",
":. c #989792",
">. c #979893",
",. c #979894",
"<. c #989892",
"1. c #989893",
"2. c #999893",
"3. c #999993",
"4. c #9A9993",
"5. c #989894",
"6. c #999894",
"7. c #989994",
"8. c #999994",
"9. c #989995",
"0. c #999995",
"q. c #9A9994",
"w. c #9A9995",
"e. c #9A9A94",
"r. c #9B9A94",
"t. c #9A9A95",
"y. c #9B9A95",
"u. c #999996",
"i. c #999A96",
"p. c #9A9A96",
"a. c #9B9A96",
"s. c #9B9B96",
"d. c #9A9B97",
"f. c #9C9B95",
"g. c #9C9B96",
"h. c #9C9B97",
"j. c #9C9C97",
"k. c #9D9C97",
"l. c #9D9D97",
"z. c #9E9D97",
"x. c #999994",
"c. c #9B9C98",
"v. c #9C9C98",
"b. c #9D9D98",
"n. c #9C9D99",
"m. c #9D9D99",
"M. c #9E9D99",
"N. c #9D9E99",
"B. c #9E9E98",
"V. c #9E9E99",
"C. c #9F9F99",
"Z. c #9E9E9A",
"A. c #9F9F9A",
"S. c #9F9F9B",
"D. c #9E9D99",
"F. c #A0A09B",
"G. c #A1A19C",
"H. c #A3A39E",
"J. c #A6A6A2",
/* pixels */
"u m q.% & m > % m | > | u | | > > m | = m q.;.> % = u m m = u q.| q.q.| m q.= = | m m > > m | m | | m m % % | C.| q.| m = = q.| ",
"q.m C.C.> $ = > | q.m > m m m C.| > > = q.q.= m = > = m > > m q.q.m C.m m = = m > m > = = > m > = | m = m | q.q.| > m m m | m m ",
"> m m m > = = q.| > = m > = | m C.q.= m F.q.m & m = $ % > > = > m u m q.% $ > q.| = m > m > > > > > | | > m = > | = u q.C.q.q.C.",
"= m = = m | & = m | m q.m > > s m m m m > = = = > = q.> m m % s | | % = % = m m % > | > q.m q.q.q.m = m m = = > m % = m q.q.q.q.",
"m $ = | | q.$ % = > > > + > s > | > = & m = % > % > > = m > m m > | % % % > q.| = > m m > = q.m u | > = > q.m > > = m q.m ;.C.> ",
"$ % > m > C.> = & % % = = | > > m m = > > % m = % | m | m = | m q.m = = > > C.m % > % = u > m | m q.| > = > m u > | q.> > = > u ",
"> m > > m > m = > > % % m m | m m | s % = m > = % = > > % | m m > > = = = m | = = > > = C.m m | m q.> | = = q.| m C.m = % = | ;.",
"> m = > m > m m & = m = > > m q.> = m m m m = = = % = > q.m m = = m = = | q.= $ m = = q.| m | >.| = = m | > > = m m q.m m u q.q.",
"% % O = | = m q.> % = > > > > m > > | q.C.= > > m > % = m > | m > > s q.| | = $ = % % > > > | > = > > | m = % > > u m q.m = m m ",
"= % $ = m m | m = = + $ = > > > s m m > | | m > % m > > % = = > % m m = | m % = = * > m = m = * $ m q.> = = > m m u m ;.= m = = ",
"= > = % m | > > | q.> O % = = > = > > m > > $ $ > | > $ + * > > > m q.q.F.| = > m = = = | m > | m s | = > = m > = = > = m m | ;.",
"> F.F.m = = m > q.q.| = | m = = m > % + > % % m > m | > > m = = > > > | > m | = m | > = m m | > m = m > % + > m = % = + m | m m ",
"m | q.m $ % = % m | m m $ > q.m = | = = % > s > m m q.> m = = m | | | m $ m > | m q.m = = | > = s > | | * = q.m m % O % = | m m ",
"= > = = + + % % = = = m = | | > | | m | > | q.| m m C.> * % m > | C.> m = m m m m m > m q.| % > | m % > m m m m m = = = % = = > ",
"> % + $ $ O $ $ $ % = | > = % = q.m m > > q.q.q.q.m * % > > > > m > = = m m | > m m m % | m m % = % > m | = = = u m = = = > q.= ",
"= > = = > = + $ % = % = > = $ m | q.| > = m q.> > = > > % = = = % > = * m q.m | s = = = > = > > % = m m m > = @ $ = u = = m = = ",
"> = = $ = = $ = m $ = > % = = $ m q.| | = = > m * % % > % = * % = m > > | > > m * = $ = = $ m m > q.m m u | m $ $ m q.> = = % > ",
"& > > = > % m > > > m m | > = = % > | | > m = = m = % = | m m = % m m = | > = > = = > q.> $ $ % % = = > = m > = = > m = = = % % ",
"$ > $ = $ % m = $ % | m m q.> % | | m > > = = m m m > m = m m m = > m > % > > m m | = m > > $ % $ m | > * > > = * > > % > = = % ",
"> = = = % > m = $ $ % $ + m = % | q.> $ | m = > m s % = m m = m = > > s % = > > > > = $ = = m m > >.> % = % % % = m > m | > = % ",
"m > u = % = = > | > $ > = $ m m * = > m m > = > = = % $ = = > O o % m > > = m > % + $ s > = m m | | > m > = = % = m m > = m m m ",
"$ % > | | = = C.= > > = $ = = = = m > = = > s = > | % % m | = = = = > u m > m m m > m q.m > $ | > $ = > > = = = = = = % % > m m ",
"% > | m > = $ m m % $ $ * m $ = | m > > m = % m m | m % $ $ = m > % % % > = > | s = | | > = m > u = $ % > | > > | $ $ % = = = = ",
"% = % % = = + $ m = = > = = = > > * = > > m q.m % $ = | m m = = > > % > m % | | * > | = > % > = = $ = = = > m | m m = % = = $ = ",
"m = + $ % m % > > > % > > = > = = > % > > m C.q.= > & > | m m = % = = m | m m = = > = = $ $ | m > $ % m = $ m m m > | % $ $ % > ",
"m % $ = q.q.$ % = | > = | m m q.| q.s | | m > m | | = > m > = | = % m | | > $ = > >.> > = m | = % = + = % m > = % = m m | > $ = ",
"= * $ m > | m > % % = = = > | m | > > > > m = $ > = % = = = | m q.m % % = = $ = > % m m = = | = = > = % = m = m = > = = > % = q.",
"m m = $ $ = % & | % $ m | >.= | m $ m m = | m = = % % > m = > | m = % = > = > % % = m = + m = $ * % = % = = > = > > = % % > q.= ",
"= = = = $ = > > | > % % > > % = > = % % > > m | | > = > > > m m + + > = > m | > = > = $ = > = % $ = > = = m m % = % $ = % = % = ",
"= m m m q.m m % m m q.= > % > % % % % % % + O = = > > = = = m $ O $ $ m m m m m $ + % % > % > % = $ = m m > = > % m m > % % % m ",
"= > > = > | C.= > q.| | m @ = % = > > % $ % $ % > | % % $ $ $ > % + $ = $ = = & $ > m m > > = m | m = = $ = | m m = > * > & & > ",
"% % | m = $ % > = = = m | > $ + = m > = m = > m m = = $ % + + > > + = m $ $ + o = | $ > > % = > > m = = > = > m = > > $ > m $ $ ",
"$ $ > > = $ % > = u = m | ;.u = % > q.m m = % $ > + % = O + + = m = $ % $ = | m u m = = m $ % O $ = = = > = $ $ = = % % = > = O ",
"= % > m > m > > = = > m m > m $ = = > m % = & % > m % $ % $ $ $ O = = + > | % = % | q.> m $ + % % % m = $ = % = ;.& + $ = % % % ",
"= $ = > = % = > % $ u | = = > $ % = $ = % $ + u % % % O = % $ = % % + = > > > = > = m m $ = = = > | > > % = = + = > $ = > = = = ",
"% % $ $ > m m = = m m = @ m = $ = % * = | q.> % $ + = $ * % | = = $ = m = = > > = m = = = > > = % m = m * % % | > > | m m = = % ",
"m q.= O m q.$ > = % % = m = % = = m m = = | > $ % > = $ % = > m | > > % % = = $ = $ $ % > m > = $ $ % % > $ % m = + = > = m > $ ",
"q.| > = % > % = $ % $ + % m q.m % $ = m > $ + + = = % = m m C.J.| $ $ $ = m + O = > & = | = = $ $ m % % % O > > % @ $ > m = % m ",
"m = = m $   o % = % > % $ > = = m = $ $ = m > * O $ m | ;.C.m | % O = > > = $ + $ = % = > m = = % m m > % = $ = m = = > q.m q.= ",
"$ + O m = o $ $ $ = m > m m = + % > % % % % % = + $ m C.q.> m = $ % = = % $ = $ u m & % = u | q.= > | > = > $ = = m m > m = = $ ",
"m m = O O * > = $ % m q.> > = = > m m = $ + = % > $ m C.;.> m = = $ > = + = % $ m m m = + + % = > m m = m = = = $ $ = = = u > = ",
"$ % = + O = $ % = m = O + $ | > & = $ O % $ + + % | m > = m % $ = = = = = = = $ % % = m % $ = > | % > > > > > > = = = % > m = % ",
"$ + $ O % % + > % = % O $ % % $ $ % $ + $ % $ = > m = m = $ % = = = $ $ $ % = % > $ = > = | > = m = = m = % $ $ > = = % % % = % ",
"% O $ . $ $ $ = m m > > = > % = = $ % $ % % m > m = u q.& + % m = % > = > = % | % = % O m > > m = m = m > = = m = = = $ O O $ > ",
"% % $ % + % = + m > > | m m $ = m | u + + $ $ = > = = = = & % $ $ = % % m = = % # m = + m > = m | u % $ | q.| = $ % % = % % = = ",
"= = > = > $ O % = m $ & = % $ $ = m m $ % O O % = = % m = = = = % % o $ > = = = # = = % = > $ = m = m = = m = $ % > > = $ = $ O ",
"> $ = = $ % > > m = $ = $ + & = = = $ $ + o $ % + O % $ = % = > = > u > m = $ $ = = = = $ m u = = = $ $ $ % = m = > > = = = $ $ ",
"> = = m > % = > > = = $ = = = = = > + + % $ = = = + $ = m > m % $ % = = m $ $ $ & + $ q.m m = = > $ $ # O $ $ % > q.m = + @ $ $ ",
"> = = = u m % % + % m = $ > % $ = = $ % $ = = = % $ O = m = > $ $ $ % = = = $ $ = $ $ % u = % % % $ + O % = = $ $ % % + + $ & $ ",
"= m u $ @ = % $ O % = = u > % % % = | m % % = > m m $ > $ $ = = = = = & $ = = % = $ = % + & = m % + + + = % % = $ O % $ $ % % % ",
"= $ $ $ O + m % $ + % O O $ = = % $ = = > = % m = m = $ % $ $ $ % = m $ $ + = u = + $ = + $ % = = + # + $ + $ = $ = > = = O O $ ",
"$ O + $ = > % $ % > % = > > | > > % $ O m | m > $ + % $ + = > u = % $ $ $ $ $ = = $ = = $ & = % m m = + + $ = = % m q.q.$ O + $ ",
"% = % % & O $ = = $ % > = % m % $ > = $ = = > $ O % $ % $ % $ % > % $ % = = + + $ & $ $ % = m + = > % & $ + $ @ $ > > & % $ $ & ",
"$ $ O + % % @ $ m & > m > % u = $ $ = = = m = % % = = % O & = $ = % $ m m % + $ % > = m > = % + $ $ O + + $ $ % = = $ > = % @ $ ",
"= + o o % $ % + $ = & = = $ $ % m > m m $ % = $ % $ > m = $ = > > = & m = $ + > > $ m = & $ o = % $ + + O % % m % + O $ = = $ = ",
"$ O $ $ > $ % > $ $ $ = m = $ @ = m > $ % O $ % $ $ % = > % = = = $ % $ O $ = m % $ = @ O + m > o $ $ $ $ @ $ m = % > = m $ $ $ ",
"= % O $ > $ = + + $ $ $ = u = % % > = + O $ $ O = = m $ $ = $ $ $ & & = $ O % = % > = @ > & > = > $ $ = % = $ & = > = & % . + = ",
"$ % % @ O $ $ > = $ = = O % > = $ = $ % $ m = % % = % = $ $ + $ = = m > + + $ + $ = O $ = @ % % > = O & = $ + $ = = + @ O % $ % ",
"+ @ & $ . $ O $ = O % = + $ % % O $ + % > = m = = = % % = $ $ = = = + o + % $ + = $ $ @ @ $ $ = $ + % & = $ $ o & = = o + % = + ",
"% $ $ $ $ = = & $ + % > + = u = > $ + $ > = = > % = > $ + O = > $ $ + o $ = = > > = & % > u % $ % + O $ + O % + = = > + $ = $ % ",
"> = O $ $ = = % + + % % = > = $ % % % $ % + % $ = m % $ = + = = $ $ = % $ $ m = $ $ m = m q.= $ = $ % $ = $ + o % $ O + + $ % u ",
"& = @ $ = = $ + @ o O $ % = o O = % % % $ O + O + $ $ $ $ & = $ % % $ $ $ = & $ + = = = = m m = & O % % $ $ + = + $ > + $ $ & $ ",
"= % $ = $ = @ $ $ $ = % + & = = > $ O $ > = % % + & = $ O $ $ $ > > = > = > > > m m $ $ $ + % O & = u > % $ $ = = = & = $ $ & $ ",
"% = % = $ $ $ $ % $ > $ o $ $ = % + $ % + % = $ $ % $ $ $ $ $ $ > $ $ > m m > % > % % & O $ $ + O $ = $ + $ = + > = $ = = $ = $ "
};
