/* XPM */
static char *mossy[] = {
/* columns rows colors chars-per-pixel */
"64 64 238 2 ",
"   c #040404",
".  c #0C0B0B",
"X  c #0A0607",
"o  c #110D0D",
"O  c #13100F",
"+  c #18100F",
"@  c #170D19",
"#  c #0E1111",
"$  c #131313",
"%  c #1A1413",
"&  c #1B1B1B",
"*  c #18151B",
"=  c #0A0717",
"-  c #240D1A",
";  c #241B1A",
":  c #37121A",
">  c #2A211D",
",  c #150E25",
"<  c #181526",
"1  c #0F0C29",
"2  c #271929",
"3  c #371827",
"4  c #331B33",
"5  c #251128",
"6  c #1F2022",
"7  c #232322",
"8  c #2A2829",
"9  c #362B27",
"0  c #3A332C",
"q  c #372B3A",
"w  c #383737",
"e  c #2A2B36",
"r  c #4E182B",
"t  c #71192D",
"y  c #44392D",
"u  c #4A2834",
"i  c #443735",
"p  c #4E2E30",
"a  c #75253C",
"s  c #51121C",
"d  c #3A403F",
"f  c #45423B",
"g  c #594939",
"h  c #51432F",
"j  c #644B3D",
"k  c #63523E",
"l  c #383742",
"z  c #3B2B47",
"x  c #4D2E4C",
"c  c #6B2B48",
"v  c #74354D",
"b  c #6E3F61",
"n  c #3C4041",
"m  c #474746",
"M  c #5A564A",
"N  c #4C5756",
"B  c #555958",
"V  c #504A4E",
"C  c #684D45",
"Z  c #685846",
"A  c #74594C",
"S  c #735855",
"D  c #5C655D",
"F  c #57615C",
"G  c #4F605E",
"H  c #69645B",
"J  c #796558",
"K  c #71614E",
"L  c #565765",
"P  c #5D6966",
"I  c #5A6664",
"U  c #5F6972",
"Y  c #626D6A",
"T  c #696965",
"R  c #726B63",
"E  c #66726E",
"W  c #78756B",
"Q  c #697674",
"!  c #6B7974",
"~  c #687577",
"^  c #777A74",
"/  c #606473",
"(  c #6E556F",
")  c #8A1B31",
"_  c #8A222F",
"`  c #AD2937",
"'  c #C5313C",
"]  c #913149",
"[  c #B0364C",
"{  c #D23443",
"}  c #914C54",
"|  c #B34D56",
" . c #886658",
".. c #946C5D",
"X. c #985965",
"o. c #877867",
"O. c #977465",
"+. c #8A7573",
"@. c #A47A69",
"#. c #AE7373",
"$. c #AE5C61",
"%. c #C84A54",
"&. c #7C8578",
"*. c #8A846B",
"=. c #858679",
"-. c #9D8A78",
";. c #998878",
":. c #9A947A",
">. c #9A987D",
",. c #A78575",
"<. c #B58A78",
"1. c #AE8A77",
"2. c #CC8D7A",
"3. c #747F81",
"4. c #897B88",
"5. c #A07885",
"6. c #7A8585",
"7. c #6F8082",
"8. c #888887",
"9. c #938A89",
"0. c #8B9189",
"q. c #989688",
"w. c #988D94",
"e. c #8C9193",
"r. c #8B9699",
"t. c #939492",
"y. c #9C9C9B",
"u. c #989897",
"i. c #8A8E91",
"p. c #AC8E86",
"a. c #A29D84",
"s. c #A49C89",
"d. c #B89585",
"f. c #A39A9A",
"g. c #B59A96",
"h. c #9CA19A",
"j. c #9BA585",
"k. c #A7A28B",
"l. c #A8A599",
"z. c #B5A899",
"x. c #B7B29D",
"c. c #ADB994",
"v. c #9A9FA2",
"b. c #A59BA4",
"n. c #A99EA5",
"m. c #AA9EA9",
"M. c #A297A2",
"N. c #B59FA0",
"B. c #9DA6A8",
"V. c #A3A5A4",
"C. c #ABA4A5",
"Z. c #AEA3AC",
"A. c #A3AAAA",
"S. c #ACADAB",
"D. c #A8A9A6",
"F. c #B1A6AE",
"G. c #B3AAA9",
"H. c #ACB1AC",
"J. c #BBB5A3",
"K. c #BDB9A6",
"L. c #B3B3AB",
"P. c #BAB6AA",
"I. c #ABABB1",
"U. c #B2A6B1",
"Y. c #B5ABB4",
"T. c #B8AEB6",
"R. c #B6AEB9",
"E. c #B9AEB9",
"W. c #ABB3B4",
"Q. c #ABB6BA",
"!. c #B3B5B3",
"~. c #BAB1B6",
"^. c #B5B3BC",
"/. c #BCB3BC",
"(. c #B4BBBB",
"). c #B9BDBC",
"_. c #B8BAB4",
"`. c #C39986",
"'. c #C4A394",
"]. c #C1BBAA",
"[. c #C2B7AA",
"{. c #C1B9B8",
"}. c #D1BFB2",
"|. c #B8C68F",
" X c #BBC0BF",
".X c #BFC0AD",
"XX c #CAC4B6",
"oX c #D2C5B8",
"OX c #CBD5AE",
"+X c #D5E5AB",
"@X c #D8E6B4",
"#X c #CDE1A7",
"$X c #E2ECB4",
"%X c #E1EEBB",
"&X c #E8F5BC",
"*X c #C9D599",
"=X c #BEB6C1",
"-X c #B8BAC3",
";X c #AFBEC0",
":X c #C0B7C1",
">X c #C2BAC3",
",X c #C2BFCA",
"<X c #BCC3C3",
"1X c #BCCACB",
"2X c #B7C3C7",
"3X c #BDCBD2",
"4X c #C2C5C5",
"5X c #C4CCCB",
"6X c #C5C9CA",
"7X c #C9D0CE",
"8X c #C4CBD1",
"9X c #C6C7D1",
"0X c #C5D1D4",
"qX c #CCD4D4",
"wX c #C6D5DB",
"eX c #CBD6D9",
"rX c #CCDADC",
"tX c #D3DBDC",
"yX c #D1D7D8",
"uX c #D4DAC9",
"iX c #DAE4CC",
"pX c #EAF4C4",
"aX c #F3F8C9",
"sX c #F4F8D6",
"dX c #E5EECF",
"fX c #CCDCE4",
"gX c #CADAE3",
"hX c #D2DEE1",
"jX c #D3E1E5",
"kX c #D3E3EA",
"lX c #DBE9ED",
"zX c #D9E6E8",
"xX c #DDECF1",
"cX c #D7E9F0",
"vX c #CFE0E8",
"bX c #E0EFF4",
"nX c #E6F3F6",
"mX c #F5FAEB",
/* pixels */
"aXsX@X! 6.q.sX&X$XD 6 P I P j.aX&XpX$X^ ! 0.u.&.I E 0.&.M N 0.J.J.].K.J.J.J.J.J.J.x.x.x.-.*.>.:.:.:.:.:.:.:.:.;.*.*.*.:.l.l.:.*.",
"aXsX@X! 6.q.aXaX%XD 6 P I P >.$X$X&X$X^ ! e.h.&.I E 0.&.B B 0.K.P.].J.J.J.J.J.J.J.J.x.x.-.*.:.:.:.:.:.:.:.:.:.*.M M Z H R R H Z ",
"$XmXuX! 6.q.aXmXpXD 6 I I P :.+X+X&X$X^ ! i.l.&.I Q 0.&.N F q..XK.].K.J.J.J.J.J.J.J.x.x.-.o.:.a.:.:.:.:.:.:.:.*.9 9 0 y y y y y ",
"*XmXzX! 7.q.sXmXpXD < I I P :.$X+XpX$X^ ! t.D.8.D Q q.&.N I u.XXl.J.XXJ.J.J.J.J.J.J.x.x.-.o.:.a.:.:.:.:.:.:.:.*.9 y h g g g g g ",
"|.pXuXE 7.q.XX@XpXD 6 I I P j.pX%X&X$X^ ! u.S.8.P E q.=.B m R 9.Z W z.].J.J.J.J.J.J.J.x.-.o.:.a.q.>.>.:.:.:.:.*.9 h k k j k k Z ",
"c.#X*XY ! 0.u.x.pXD < F I P j.sXpX&X@X! ! h.S.8.P E t.8.m 7 0 f % 9 W x.K.K.K.J.J.J.J.J.-.o.:.a.a.a.a.:.:.:.:.*.0 g Z g Z K Z Z ",
"|.|.c.Y Q =.e.l.sXD & B I I j.sXaXpX+X! ! h.H.0.P Y u.=.8 * * * + * 7 W ].J.K.K.J.J.J.J.-.o.:.a.a.a.a.>.:.:.q.*.0 k Z g R ^ H j ",
"|.|.XXY Q &.e.l.dXI & N I B >.pX&X&X+X! ! h.L.0.P P u.T * . . o % . o i x.].K.K.J.J.J.J.-.o.>.a.a.a.a.a.>.:.a.*.0 Z Z g R =.R k ",
"|.OXiXE Q &.q.k.iXI & N G B :.%X$X&X$X! Q B.!.0.P P e.m o ; 9 0 y 9 ; % 0.XXK.K.K.J.J.x.-.o.a.k.a.a.a.a.a.:.a.o.0 Z Z h M ! R k ",
"#X#XOXY Q &.t.q.iXF & N G N =.#X@X&X$X! E V.!.0.P E ^ > > C  . ...A u o H ].K.].K.J.J.x.-.*.k.k.a.a.a.a.a.q.a.o.0 Z Z h f D H k ",
"%X%X|.Y Q &.c.c.#XF & N B N &.#X+X&X$X! E V.!.i.P E M % j @.<.<.1.@.C ; 9 z.].].K.J.J.x.-.:.k.k.k.a.a.a.a.a.k.o.0 Z Z h i M M Z ",
"&XaXc.Y Q =.OX@X#XF & N B N &.+X+XpX@XE P B.!.i.I P 0 ; ..`.`.`.<.<. .9 * 0.XXK.].K.J.J.-.s.l.k.k.a.a.a.a.a.k.o.0 Z Z g g g g Z ",
"@XsXOXY Q =.%XpX@XD < N N N &.@X@X%X+XP P A._.e.I F 7 9 ,.`.`.<.`.<...g . H XX].].P.K.J.-.s.z.l.l.k.k.a.a.a.k.W 0 Z Z A Z Z Z Z ",
"*XpX#XD P =.dXsX@XB * N N B &.@XpX&X#X&.^ W.).u.6.Y * y ,.,.@.d.<... .j + w G.].].].K.J.;.-.l.s.l.l.l.k.k.k.l.W 0 Z K K K A Z A ",
"*XpX#XP Y 0.sXsXpXI 6 P 6.6.u.uXdXpX#XB.B.(.<XA.u.D o g ,. . .d.,.A A C % ; q.].].].K.J.O.-.l.s.s.u.q.=.=.;.;.H 9 Z Z Z K J J o.",
"OXdXuX6.i.h.sXdXpX8.V B.gXwXwXjX1X<X5X5X<X2XW.W.Q 0 ; C ,.J A 1.O.Z A  .; > =.G.].].P.J.-.0.y.u.^ ^ R i w f f 0 & 9 9 f J o.q.k.",
"OXzXjX1XQ.(.uXuXiX).I.5XlXnXnXwX/ / / / L L L L i 9 9 Z <.O.O.1... ... .u 9 9.J.oXXXXX].o.W &.W i w e * * - < * 5 < * i o.l.[.].",
"OXlXnXbXB.e.e.r.v.V.Q.V.B.;X<Xr.< < < e l q q q u p p A d.<.<.<.O.@.@...p 9 9.k._.[.[.z.V m V m * = = = # - @ @ 4 < @ H s.XXoXoX",
"5XbXnXnXm < e e e e q q q x V q & < 1 ~ y.9.8.8.@.p J  .d.`.`.d.@.@.1. .p ; H H ^ W ^ W 7 @ < @ = = @ @ * r u * 2 4 u G.XX].}.}.",
"H.0XnXnXn 1 1 1 1 1 5 5 5 3 p 9 2 * 1 r.tXqX6X4Xl.9 C  .1.'.`.,...@.1.A 9 % w q l l l w < < 5 < 1 , 3 5 @ 3 x * q +.+.XX6XXXoXoX",
"T 6.0XnX6.L L m m l x x x v S V m w l v.bXxXzXlXV.; 9 g ,.'.<.@. . .,.C ; o 7 1 1 1 1 1 < 2 4 2 2 u r 4 , 3 x - m ).{.oXoXoXoXoX",
"% & r.nXwX2XQ.B.B.B.v.y.r.f.u.i.8.6.6.V.5XqXrXxXt.% o % ,.`.O...} C O.j . . ; < < < < < < 2 4 4 u } c x 2 r v : C 7X4X].].].XXoX",
"- X i.nXxXlXjXrX0X1X2X2X(.).Q.W.W.W.W.(.<X5X5XbXt.% o . O.`.@.$. . .O.p X . 2 7 < < < * 3 - 5 , 7 X.v q 4 +.5.J +.!.L.D.D.D.D.G.",
"4 . 6.nXlXnXnXkXhXrX0X0X7X1X1X1X1X3X5X1X5X5X4XxXt.% % . J `.d.#.@.@.O.9 X . 2 q 4 2 2 3 r 3 2 @ % $.] u u !.).l.l.l.l.h.y.y.y.u.",
"8 * 6.xXhXxXnXxXzXkXrXrX<X2X0X5X0X0X0XqXyX7X<XzXt.% % o C d.`.d.<.,. .; X o 4 x x x x c ] c x 2 % | %.] c 6XqX4X).H.V.l.y.y.y.u.",
"9 * ! hXtXlXbXnXlXlXjXrXY r.rXqXeX0XqXqXqX5X).jXt.+ o o Z ,.,.1.,.o.A ; X % x ( x c S X.] x z 2 O ] | [ } 5XtXqX5X X(.!.S.D.D.H.",
"p - Y wXtXzXxXnXbXxXlXgXV r.jXrXrXeXqXqXqX4X_.rXy.9 + X Z 1.O.,.O. .J ; + 0 ( 4.x v ,.#.] z q 3 O c [ [ | 4XyXtXqXqX5X4X)._.L.u.",
"_ : D 1XtXkXlXbXnXxXxXjXe.Q.kXrXrXrXqXqX5X X_.5XA.H 7 . C d.-.-. .O.O.> 9 T 4.w.b } 2.2.[ x p 3 * r ) ` %.6XqXtXtXyXqX7X5X5XH.M ",
"` s m y.tXkXzXlXbXxXlXlXeXrXkXtXrXqXqX5X5X X_.(.U.u.T m J '.d.d.,.,.@.p m 9.w.9.v ] X.| %.S a s % t ` ' } 5XqXqXtXtXtXtXqXqX(.w ",
"` t w i.eXkXzXlXxXxXlXlXbXlXkXtXeXqX8X5X<X!.H.S.U.~.f.8.;.z.'.'.d.p.,.A W f.w.w.] ] c [ %.| ] t - ) ` _ c 5X7XqXtXtXtXtXtXtX5XQ ",
"_ _ 9 i.eXkXkXzXlXlXkXjXrXgXjXrX0X5X5X<XL.C.C.C.Z.~.T.S.f.d.'.g.p.p.,.O.f.F.f.b.X.] a [ %.| %.` : t r - l 4X7XqXtXtXtXhXjXjXjXrX",
"` t ; Q qXkXkXkXkXkXkX8X2X2X5XrX5X1X<X!.C.Z.F.U.U.U.~.~.Z.g.g.g.d.d.p.p.H.H.b.f.w.#.} c _ ] [ ' : 3 2 * m 4X7XqXqXqXtXtXjXzXxXbX",
"` s * P eXfXkXkXkXkXkX3X2XQ.W.0X5X1X).S.Z.F.U.T.U.U.~.~.F.N.N.z.z.g.g.m.T.H.m.m.H.G.5.b t ] [ ' : V V m E 5X5X7XqXqXtXtXhXjXzXzX",
"t @ + E gXgXgXgXgXgXfXgXgX3Xy.2X1X<X!.H.U.U.U.T.~.T.U.U.C.F.F.G.{.H.m.F.U.C.f.H.~.^.F.8.a [ %.' > 8.i.8.u.7X5X5X7XqXqXtXtXgX5X5X",
"- . . 6.gXgXgXgXrXeXrXfXkX0Xi.Q.2X(.U.U.U.U.T.T.{.~.~.T.m.Z.U.U.T.U.m.Z.Z.C.F.~.~.^.U.y.X.{ { _ % m M m W 5X4X5X5X5XqXqXtXqXS.A.",
"# O . ^ gXrXrXwX0X5XwXkXkXwX&.B.Q.W.U.T.U.U.~.~.{.~.~.^.Z.F.~.T.U.U.b.Z.Z.Z.U.~.~.{.F.C.#.` ` s * w m 0 H 4X4X5X5X5X5XqXqX7XH.S.",
"w w 8 N wXrXwX3X1X;XwXkXkXgX^ e.A.A.U.~.U.U.~.~.:X~.~.^.U.F.~.~.T.F.b.F.H.U.T.~.^.^.U.Z.w.a r < & H W H W 5X4X<X<X<X4X5X5X5X5X5X",
"I.Q.e.m 0XwX3X2XQ.Q.gXwX8XgX^ 6.y.V.F.U.U.U.~.~.:X~.~.:XU.F.~.~.~.U.Z.U.U.U.T.~.^.^.U.F.f.p + = % H H H ^ 4X X).(.(.).<X<X<X4X4X",
"2X3Xv.n 1X0X1XQ.B.A.gX;XQ.gX8.^ e.V.U.F.U.U.~.~.:X^.~.^.U.F.~.~.~.U.F.U.T.U.~.~.=XT.U.U.b.V * < 7 R W W i.<X).(.(.!.W.W.Q.!.4X5X",
"Q 3.I l 2X<X2XB.e.f.kXA.B.wXi.^ i.Z.U.m.U.U.~.{.:XE.E.~.E.F.~.~.~.F.F.U.T.T.~.~.=XU.F.F.Z.^ m m M ^ i.8.V.<X(.(.W.S.A.A.B.S.7X7X",
"m m n m V.).V.y.e.y.kXA.;XgX6.! i.U.T.f.m.U.~.{.^.T.~.~.~.H.~.~.~.F.U.U.~.~.~.~.>XU.U.Z.C.b.y.W.y.m M M 8. XQ.I.A.V.y.y.e.S.4X!.",
"^ E B M 8.t.E 8.e.S.cX!.1XgX6.! e.U.~.C.w.U.~.:X~.T.~.~.~.F.~.~.~.F.U.U.~.~.~.~.>XF.U.Z.Z.F.y.W.e.& & 7 T (.W.B.y.t.t.9.=.H.!.e.",
"XX(.t.T ^ E w ^ y.2XxX^.3XgXi.^ y.~.^.T.w.C.~.:X~.T.~.~.~.Z.E.~.~.H.U.U.~.~.T.^.^.F.T.Z.U.b.B D m . X . V !.V.y.e.i.9.o.W _.V.^ ",
"H ^ &.e.y.i.8.H.).0XcXW.3XgXV.t.I.6X>X^.b.u.T.^.~.E.~.~.T.Z.E.~.~.U.U.U.E.~.T.^.{.Z.U.m.U.b.m w 8 ; & & M v.r.y.q.q.9.=.8.).).i.",
"B ^ y.W.(.W.Q.5X4X<X1Xy.I.2Xr.t.^.8X>X^.U.u.U.=X~.E.~.~.U.Z.T.~.^.U.U.U.E.^.T.:X^.m.U.m.U.b.R T T H H M H 9.9.8.=.9.u.9.t.<X5Xf.",
"A.1X0X0X0X0X1X1X<XW.A.e.e.B.6.e.=X9X>XE.^.m.Z.^.~.E.~.~.U.Z.~.~.:XU.U.U.T.E.T.>XT.Z.F.Z.U.Z.C.[.[.J.J.=.o.-.;.H R W u.f.y.4XqXZ.",
"lXbXxXlXzXzXjXgXgXwX5X<X2X<XW.Q.4X9X>XE.^.F.m.~.~.E.~.~.F.U.E.~.:XE.U.^.^.U.~.4XU.F.Z.U.^.R.9.H W q.J.T H ;.W f m M 9.q.V.eXyXH.",
"Q.Q.Q.;XQ.(.2X2X1X3X1X1X8X8X0X0X4X8X>X^.T.U.u.U.~.E.~.U.F.U.E.^.:XE.F.).^.U.~.>XU.F.F.^.6X=X+.f H 9.G.W W q.=.T H T 9.q.y.8X5XS.",
"m N N P E ^ ! 6.6.i.e.r.B.I.I.(.4X8X>X^.E.T.w.U.~.E.~.U.U.E.~.:X>X^.Z.).~.U.{.:XU.F.F.=X9X>X9.E e.C.Z.C.V.V.f.l.l.w.f.f.u.!._.y.",
"* * * & N U w 7 6 7 8 w w l n Q 6X8X=X^.E.T.w.U.~.E.~.U.T.E.~.:X>X^.Z.U.U.U.{.:XU.Z.F.^.>X=XF.).5X5X4X4X).).).(._.!.!.S.V.V.V.9.",
"X X X . I E 8 # . . 7 7 * # # M 8X6X^.^.^.T.w.U.~.E.^.U.~.E.~.:X>X:XU.Z.U.U.:X=XZ.Z.U.U.=X^.U.(.).(.).).).<X<X4X4X5X5X4X4X X(.U.",
". . X * Y ^ V w w w N m . * * B eX>XU.~.^.E.w.U.~.E.=X~.~.E.^.:X>X:XE.m.U.U.:X^.Z.F.U.U.=XR.b.Q ^ 3.8.i.t.y.V.S.W.(.<X<X5X5X5X5X",
". . X * Q ^ Y W R I V w * w w Y eX>XU.U.E.E.M.T.~.E.^.~.U.E.^.>X>X>X~.Z.U.U.:X^.m.U.U.E.=XR.t.7 & < 7 7 8 w w n V M H Y ^ ^ 8.i.",
"X X X * ^ ^ ! =.=.B w 7 * w 7 E eX=XU.U.U.U.b.^.^.T.~.^.U.E.=X>X>X:X~.F.F.U.:XT.m.Z.U.^.=XR.e.* X X X X X * * . * & ; 7 8 8 m w ",
"X X X & W &.W ^ H 8 # . * 7 * ~ eX^.U.U.U.U.m.^.E.U.~.E.U.E.:X>X>X:X~.U.F.U.:XU.m.m.U.~.=X^.y.8 + . * . . & & . X X X X X . * X ",
"& & * & W ^ H M > . X X X o 8 r.8XU.m.Z.U.Z.m.=XE.R.~.U.U.~.:X>X:X:X~.F.Z.U.=XF.w.m.^.E.^.-Xb.0 . . + o * + & ; . X . . . & * X ",
"E T B B 8.i.^ T w w 0 8 8 7 n I.9X^.Z.m.Z.Z.F.=XR.E.~.U.U.~.>X>X=X:X~.F.Z.U.^.m.9.F.E.U.^.=XZ.i + . + * ; o + 7 & . . + & & . X ",
"_.!.S.D.S.D.y.q.8.=.&.^ Y B D ^.8X>XU.b.M.m.U.^.U.E.~.U.U.^.>X:X=X:X~.Z.Z.U.^.w.&.U.U.U.^.=XU.f + . . * 7 + X % 7 & * * 7 * X X ",
"!.!._._._.!.L.P.P.P.L.L.L.V.A.<X8X=XE.M.w.w.m.^.U.E.E.U.R.^.>X:X^.=X~.Z.Z.U.^.9.i.^.Z.T.=X=X^.f . X X . 7 . . X . * & & * X X X ",
"L.L.!.!.!.!._._.{.{.{._._.).).4X6XE.m.w.4.W M.=XU.E.T.U.R.=X>X=X~.=X~.Z.Z.U.E.9.w.^.U.^.=X=XR.m * . . + 7 . X X X X . . X X X X ",
"L.L.L.L.L.L.L.L.L.L.L.S.S.S.U.4X=XU.w.w.4.B w.=XU.R.U.U.U.:X>X=X~.=X~.Z.m.U.U.i.Z.R.U.=X=X=XU.B w w w 0 i 7 * * * * + . . . X X ",
"L.L.L.L.L.L.L.L.L.L.L.L.L.L.!.6X^.Z.b.M.9.B i.^.F.U.Z.Z.~.>X>X^.~.=XE.C.m.U.U.w.U.U.Z.R.^.;XU.t.q.i.8.8.8.^ Q T T F M m w 0 8 7 ",
"L.L.L.L.L.L.L.L.L.L.L.L.L.L.!.2X=XU.Z.b.w.W w.E.Z.F.Z.U.^.>X=X^.^.=XR.m.m.U.F.w.E.U.Z.R.U.^.Z.l.D.D.C.C.G.l.l.l.u.q.0.8.=.+.^ E ",
"L.L.L.L.L.L.L.L.L.L.L.L.L.S.!.-X>X~.U.b.w.9.m.R.Z.Z.b.U.=X:X=XR.R.=XR.b.b.U.Z.w.E.E.U.R.U.R.V.f.l.l.C.V.G.G.L.L.L.L.L.~.P.P.L.V."
};
