/* XPM */
static char *pnaessens[] = {
/* columns rows colors chars-per-pixel */
"64 64 256 2 ",
"   c #1A0D09",
".  c #230C05",
"X  c #28150C",
"o  c #381508",
"O  c #2C1A14",
"+  c #371D14",
"@  c #3C2417",
"#  c #2C211B",
"$  c #38272B",
"%  c #382836",
"&  c #332B2E",
"*  c #271C26",
"=  c #47160B",
"-  c #58160D",
";  c #491913",
":  c #5C1915",
">  c #561714",
",  c #5B0C06",
"<  c #631916",
"1  c #6C1B18",
"2  c #671916",
"3  c #731B19",
"4  c #7A1C1A",
"5  c #751814",
"6  c #6F130B",
"7  c #462717",
"8  c #552917",
"9  c #5A321B",
"0  c #512812",
"q  c #682716",
"w  c #673519",
"e  c #742E15",
"r  c #442627",
"t  c #57392A",
"y  c #4D342E",
"u  c #663824",
"i  c #713931",
"p  c #7A451A",
"a  c #524537",
"s  c #724C30",
"d  c #76643E",
"f  c #3B364E",
"g  c #442D48",
"h  c #4A3557",
"j  c #50374E",
"k  c #5B3E6E",
"l  c #543C68",
"z  c #573F72",
"x  c #493865",
"c  c #3C4B53",
"v  c #3D4768",
"b  c #375D70",
"n  c #36647B",
"m  c #485958",
"M  c #50514E",
"N  c #6D534E",
"B  c #6F674F",
"V  c #5C4168",
"C  c #5C4274",
"Z  c #5B4579",
"A  c #454E73",
"S  c #664667",
"D  c #674877",
"F  c #765278",
"G  c #4A6569",
"H  c #577878",
"J  c #4D6E73",
"K  c #5C6A5E",
"L  c #3E433C",
"P  c #861E19",
"I  c #8E180D",
"U  c #992219",
"Y  c #8C3317",
"T  c #A7251A",
"R  c #B7281A",
"E  c #B72A11",
"W  c #AE200F",
"Q  c #CA2C1A",
"!  c #D82D19",
"~  c #D9321C",
"^  c #CC331B",
"/  c #E4331C",
"(  c #EB341C",
")  c #F5371D",
"_  c #E22E18",
"`  c #C73121",
"'  c #F03B22",
"]  c #C01A0A",
"[  c #94441D",
"{  c #AE481C",
"}  c #854928",
"|  c #914E2B",
" . c #B85729",
".. c #B14E26",
"X. c #B36B38",
"o. c #8C6D3D",
"O. c #CC4F1E",
"+. c #E84C1D",
"@. c #CB5226",
"#. c #FB4523",
"$. c #F65530",
"%. c #D36B33",
"&. c #E96D31",
"*. c #906D51",
"=. c #B3774B",
"-. c #93625E",
";. c #CA7947",
":. c #D26E69",
">. c #E8823E",
",. c #B68758",
"<. c #AF8E70",
"1. c #978D73",
"2. c #D18E51",
"3. c #E69A57",
"4. c #F89C53",
"5. c #F48F46",
"6. c #FAA65B",
"7. c #F6A655",
"8. c #FDAE61",
"9. c #FFB364",
"0. c #FFBA6B",
"q. c #FEB669",
"w. c #ECAF6E",
"e. c #CEA16E",
"r. c #FFC473",
"t. c #337291",
"y. c #2371AE",
"u. c #2575B2",
"i. c #267AB5",
"p. c #287CB6",
"a. c #297EB8",
"s. c #257DBA",
"d. c #226EAC",
"f. c #206FA5",
"g. c #594D85",
"h. c #58528C",
"j. c #51568D",
"k. c #6A4C82",
"l. c #785588",
"z. c #7E5993",
"x. c #6F5384",
"c. c #4C7290",
"v. c #835B89",
"b. c #855D98",
"n. c #8B629C",
"m. c #8A6196",
"M. c #94689B",
"N. c #906B8D",
"B. c #8C65A3",
"V. c #9365A4",
"C. c #956AA3",
"Z. c #996DA5",
"A. c #996BA9",
"S. c #9E70AB",
"D. c #9D70A6",
"F. c #9E71B3",
"G. c #A474AC",
"H. c #A77AA9",
"J. c #A978B5",
"K. c #AC77A9",
"L. c #AC7498",
"P. c #2B84BB",
"I. c #2E8ABE",
"U. c #2780BD",
"Y. c #338BBC",
"T. c #378DB6",
"R. c #578588",
"E. c #548D97",
"W. c #6A8D8B",
"Q. c #4E95AB",
"!. c #67AAB3",
"~. c #60A0AB",
"^. c #2C8BC2",
"/. c #318EC1",
"(. c #3493C3",
"). c #3B9AC5",
"_. c #3999C7",
"`. c #2D95C8",
"'. c #3DA2CC",
"]. c #3BA4D2",
"[. c #439DC5",
"{. c #43A4CB",
"}. c #46A9CE",
"|. c #4BACCD",
" X c #4BA4C7",
".X c #56ACCA",
"XX c #5AB2CC",
"oX c #48ADD1",
"OX c #4CB2D5",
"+X c #57B8D4",
"@X c #4DB0CF",
"#X c #67B7CA",
"$X c #75BCCC",
"%X c #65BDD3",
"&X c #6BB2C9",
"*X c #5CC1DC",
"=X c #79C2CE",
"-X c #6AC5D8",
";X c #7AC5D2",
":X c #7AC9D5",
">X c #73CBDA",
",X c #7BCDD9",
"<X c #73C6D5",
"1X c #76CBD8",
"2X c #7AD4E4",
"3X c #6FCFE6",
"4X c #5BC4E3",
"5X c #B287AC",
"6X c #B68DB2",
"7X c #A0A8A0",
"8X c #C29EB4",
"9X c #CFB0B7",
"0X c #CBA892",
"qX c #ACC7B7",
"wX c #DDC4BC",
"eX c #E4CEBD",
"rX c #DCC79E",
"tX c #8ABBC5",
"yX c #89C8CE",
"uX c #9DD1CE",
"iX c #97D0CF",
"pX c #85CCD4",
"aX c #81D2DE",
"sX c #99D3D3",
"dX c #98CACA",
"fX c #ABD5CC",
"gX c #A8D5CD",
"hX c #B4D9CE",
"jX c #BCDBCC",
"kX c #B5D5C9",
"lX c #A2D5D1",
"zX c #ABD8D0",
"xX c #B2D5CB",
"cX c #B1E3DD",
"vX c #85D8E4",
"bX c #87E3F0",
"nX c #C4DECB",
"mX c #C9DDC8",
"MX c #D0DFC7",
"NX c #ECD7C2",
"BX c #CCE1CA",
"VX c #C5E1CE",
"CX c #D3E3CA",
"ZX c #DBE5C9",
"AX c #D8E2C6",
"SX c #CBE7D4",
"DX c #ECE9C6",
"FX c #E5E8C7",
"GX c #F4EDC6",
"HX c #FBEEC5",
"JX c #F5E3C4",
"KX c #FFF2C5",
"LX c #FFF8C6",
"PX c #FAF6CD",
"IX c #FEFDD2",
"UX c #EDF1D1",
/* pixels */
"d.d.d.d.y.y.u.u.u.u.u.u.u.p.p.U.^.p.i.P.Y.p.P.p.P.P.P.P.P.Y.P.P.P.P.P.P.[.(.P.P.P.P.P.s.(._.).Y.u.i.u.p.Y.Y.I.Y.Y.u.y.y.y.y.d.y.",
"d.d.d.y.u.u.u.p.u.u.i.p.a.s.i.t.n i.P.a.).P.P.P.P.P.P.P.P.Y.I.I.I.I.I.^.{.(.P.I.P.P.P.P.[. X_.P.i.i.p.).).(.)._.p.u.u.u.u.u.u.y.",
"y.y.y.u.u.p.u.p.P.i.i.^.d.G M 2.3.m s.P.Y.).P.P.P.P.I.I.I././.^./././.(.|.).I.I.I.I.P.).|.|.(.s.P.i.Y. X[. X XP.u.u.u.u.u.u.u.Y.",
"u.u.u.u.u.a.a.u.P.).U.b N 3.q.2.0.3.b ^.P.[.Y.I.I.I./././.(.(.(.(.(.(._.XX).(.(./././.|.@X XI.P.P.P.[. X X XY.i.i.i.i.i.i.i.[. X",
"u.u.u.u.i.i.P.P.i./.b X.r.2.6.6.2.9.s y.(.(. X^.(.(.(.(.(.(.(.(._._._.{.#X).(.(.(.(._.XXXX_.I.I./..X.X.X.XT.i.p.p.p.a.i.i. XXX.X",
"a.u.p.p.p.a.a.Y./.f.=.q.2.q.2.6. .{ X.B P.`. X_.(.(.(._._.].].].].T.T.Q.%X].]._._._..X%XXX(.(.^. X#XXXXX).P.P.P.P.P.a.a..X#XXXXX",
"(.P.i.s.s.P.P.P.`.n %.0.3.3.%.Y X.e.0.3.t.]._.|._._._.]._.t.J t.c 7 7 r M G t.].'.{.%X$X{.(.(.(..X#X#X[.P.I.P.P.Y.P.s..X#X#X#X#X",
" X X[. X).P.P.P.^.G O.%.6. . .Y ..3.%.X.t.]._. X{._.{.T.a w q 0 o 7 8 8 0 w p G ].XX;X#X_._._.{.#X$X X^./.I.I.(.P.P.T.$XkXGXDXmX",
"XXXX#X#X$X XP.Y.`.G @.Y @.Y e e ..| @.X.t.]._.'. X{._.M w 7 7 9 7 7 O O 7 9 u [ J >X;X}.'.'._.#X:X.X(.(.^.(._.I.I.I./.mXKXKXKXKX",
"#X#X$X$X$X$X[.I._.b %.@.Y [ [ %.9.6.O.m ].{.{.{.{.oXG 9     X + X O O .   7 s } p !.>X{.}.{.XX;XXX_._.(.(.[./././.I.Q.KXKXKXHXmX",
".X$X$X$X$X=XXX^._.y.p &.%.4.X.5.&.[ b '.{.{.{.{.OXE.t X u 2.3.2.=.2.3.;.[ o 9 u } M +X|.|.|.;X%X'._._._.{.(.(.(.(.^.&XKXHXKXCXfX",
"P. X=X$X$XyX#X(._.T.f [ @. .Y q m T.OX}.}.}.}.oX|.m 7 y 0.q.9.9.9.9.9.0.6.{ 7 w u w Q.+X|.:X;X}.'.'.'.{._.(.(.(.(.^.(.DXKXGXkXkX",
"/.^.[.$XyXyX.X(.].n A h u i | N '.OX|.}.oX|.|.OXJ t . *.,.2.9.8.8.q.8.3.6.&.= 9 8 p M OX%XpXOX}.}.{.}.'._._._._._.^.tXKXKXGXkXkX",
"^.(.^._.$XyX$X[._.b A l k.B.N.N {.|.+X+XoX|.OXE.M 7 X s = o } 8.3.} 7 + 7  .q @ 9 9 p J vX+X@XOXoX}.}.{.'.'.`.`.`.(.FXKXDXjXjXnX",
").^.(.(.(.#XyXpXQ.v g.h F l.-.B {.OXoX%X+XOX+XJ t . O %...u = 3.,.= q e { ..[   9 8 w } R.OX+X XoXoX}.}.'._.$XdX$X`.fXKXnXnXHXKX",
"DXtX`._.(._.XXsXW.A Z D C.B.5X*. X+XOX+X%X+X+XG 7   @ 2.*.N o.2.9.%.t 1.=.4. .X O 9 8 w p s a J +X|.|.}.}.mXKXKXKXkXkXKXZXHXKXFX",
"KXLXtX`.{._._.+XG j.z l.S.C.H.*.Q.+X+X+X+X%X*XJ $ X 7 w.0X$ ,.3.6.w.O B rX7.X.X X X 8 u 9 0 m +X+X+XOX].kXLXHXHXGXKXKXKXKXGXhXlX",
"HXKXHX X'..X{.T.c h.k n.Z.C.F.=.H 2X+X+X+X+X-X~.O 7 *.q.q.e.2.9.8.0.,.<.0.9.X.  7 + X 8 u p B Q.+X+X+X#XHXKXKXFXBXmXZXFXKXBXlXgX",
"KXHXKXdX`.{.+XQ.v g.C V.C.Z.A.<.K >X;X+X-X-X%X3Xc.u 2.q.6.X.4.6.6.6.0.9.6.9.| 7 @.{ X X 7 9 e } Q.+X+XyXKXKXGXBXBXBXnXjXFXmXgXgX",
"KXHXKXkX_.{.OXE.v g.D C.C.C.A.L.B +X;X:X-X<X<X>X#Xs ;.9.8.| { { } 3.6.3.9.4.e [ { { ; X X 7 7 w K *XOX=XKXKXFXBXBXVXnXjXhXkXgXgX",
"FXKXKXdX'.|.OXE.c h.D C.C.C.S.v.G 3X-X:X:X-X<X:X$Xs =.2.9 7 o = o 8 9 9 3.&. . .{ @.+ X # O = M m +X+X+XDXKXGXBXZXGXGXGXCXjXhXgX",
"mXKXDX.X}.|.OX X& A C B.C.C.G.S L >X<X>X:X,XJ >X2Xy 7 e.X.d ,.*.,.<.d =.6.%.&.%.&.e O X c ~.. G Q.%X+X+X;XDXKXGXHXKXGXnXhXhXzXlX",
"CXKXGX$X}.@X|.+Xc x z l.S.S.l.g -.J 2X:X>X,Xy M M X   ,.9.7 B 1.*.y s q.6. .[ %.w X @ + & 2Xm E.-X-X%X%XOX;XKXKXKXGXlXsXsXsXsXlX",
"FXKXKXFXoX+X@X+XQ.f g.z k.x.j S 6Xo.E.bX:X>X~.+ o +   d r.s . I I w 6.9.5.e   X X + @ 7 + E.<X3X-X<X-X-X+XlXKXKXKXnXsXsXsXlXlXlX",
"jXFXKXGX+XOXOX+X-Xc j.C C h v.D.F.0Xd J K B J % 7 O X t r.2. .$.;.8.8.9. .X O O O 7 @ @ 7 r R.R.R.-X<X-XnXKXKXDXKXnXsXsXsXsXlXlX",
"jXBXKXgXoX=XyX+X4XR.v h.C D S.G.G.J.<.S 5X0X2.9 O O X + w.6.2.;.3.8.9.%.8 X O O X + 9 @ @ 0 = @ !.>X-XsXKXGXjXlXhXzXsXsXlXZXGXCX",
"jXZXKXCXmXKXKXFX:X+Xc j.C C x.G.G.S.5XN S b.6Xe.a m.S % ,.0.4.4.9.8.X.e Y X X O O X 7 9 @ G E.<X3X<X*XzXKXBXlXzXlXsXsXsXZXKXBXzX",
"jXBXGXKXKXHXHXKXZX4XR.v h.k C m.G.G.G.N.M.N.F J.<.S C.h j s } =.X.9 : &.e * O X O X . + 7 @ R.2X<X-X:XCXKXBXzXzXsXhXZXZXKXZXgXhX",
"jXhXCXHXHXKXKXHXKXiX-Xm j.Z C C M.G.S.G.S.J.N.S J.F l.F % ; X . . q %.5.t z h y . # m $ # m =X>X>X-XDXKXCXhXlXlXhXKXKXKXGXnXhXhX",
"jXjXnXnXBXGXKXHXKXgX4X~.f j.k C C n.G.G.M.Z.J.v.j G.m.M.g { @.[ @.&.6.%.r x j K.t O $XaX;XvX,X>X,XhXKXCXsX:X>X-XnXKXHXBXgXhXzXzX",
"jXjXnXnXjXZXKXHXKXsX-X2XH f h.k C C l.S.C.n.G.J.D y C.G.S.i &.5.&.4.8.%.o O v.6X| Y s !.vX:X>XpXGXGXhX:X>X>X-X:XFXKXDXzXhXzXhXjX",
"GXFXnXnXnXBXKXKXGX>X>X>X2XJ A h.k C z D l.l.G.G.M.V g l.G.v.i 2.9.8.6.@.t m.J.v.N :...J bX:XsXzXlX>X>X>X>X-X:XGXKXDXZXhXzXCXHXKX",
"KXKXFXjXnXZXKXDXpX>X>X:X2X~.o A h.k C C k D S.G.b.G.v.h j S x.F 2.8.X.S m.G.S.C.Z.S 9 M &XvXpX,X-X>X>X-X>X*XsXKXFXjXhXhXBXKXKXHX",
"CXHXHXnXnXDXKXZX:X:X<XvX!.8 U : v h.k C C k C.D.Z.G.J.S.D V l z.F o.N.C.j S v.S j D L.,.s E.2X:X,X,X>XsXZXhXjXKXBXjXjXzXGXKXKXKX",
"gXmXGXjXjXFXKXHXGXGXsX-Xt E ^ : o m h.C C l b.G.G.G.G.G.G.F x.F l.V.m.S j j V l.G.J.G.J.0Xp !.2X,X-XsXKXKXKXGXBXhXlX:XsXKXKXHXCX",
"zXhXGXDXnXCXGXGXHXLXCXM +.#.P ; 2 o f g.z l l.G.G.G.G.G.G.F b.J.5X5XH.S.F v.J.J.G.G.D.D.J.;.K 2XpXsXDXKXFXVXsXpX:X-X*XlXKXKXCXgX",
"zXhXDXKXGXjXnXjXCXDXN O.#.T ; 2 > o % A h C D G.G.G.G.J.Z.F 6XeXeXwXNXNXH.k m.G.G.G.M.M.F.L.p !.cXhXzXsXsX,X>X-X>X>X:XpXKXGXhXhX",
"sXhXhXhXDXmXkXSXjXM O.#.~ ; 2 2 ; - & h.k Z C m.J.G.G.H.v.L.eX5XS.A.S.6XJXN.S m.G.G.m.v.G.J.| & <X>X-X>X>X>X>X>XpXZXGXZXHXKXjXhX",
">XsXhXzXBXHXUXqXa O.#.) q > 2 > : 2 + j.C C C D G.G.G.N.v.8XG.G.9XNX9X8X6XJXF F N.J.v.S G.J.-.I N >XaX:X,X,X-X<XGXKXKXKXKXZXzXgX",
">X-XpXlXkXUX0Xt @.' ) T ; 1 : > 1 1 o v g.C C C n.J.N.F 7X8XA.eXHX8X9XNXS.9X9Xk F J.S S J.J.-.4 +.M >XaX<X,XzXnXKXKXHXZXFXhXnXDX",
"pX<X<X<XvXR.9 $.' ( ~ > 2 1 : 2 3 1 o f h.k C k D G.v.D NX5XH.KX8XH.8X6XS.8XNXl.S G.j S J.S.L.w T +.M <XvXCXKXKXKXKXjXlXlXnXKXHX",
"KXFXsX>Xb e $./ / ) P > 4 4 : 3 3 2 = + j.C C C C m.l.v.NX5XH.KX8X5XKXwXA.8XwXb.S M.% D S.G.G.=.: ` +.a tXIXHXDXZXZXgXlXlXDXFXhX",
"HXKXGXc Y $./ ~ ) ^ > 1 U 1 2 3 3 2 > = v g.k C D D m.V.9X9XV.wXKXwXJX9XV.wX9XV.C.S g Z l.G.A.K.| 6 ` #.} 1.UXVXkXgXgXCXGXHXjXgX",
"HXIXB Y $./ ~ ( ) 4 : P R 2 1 3 4 : : < $ j.k C D n.n.S.H.JX5XV.6X8X6XH.6XJXS.G.M.& Z C C m.G.F.:.q U T #.{ N 7XhXcXSXHXmXjXhXgX",
"IX1.e $.( ~ / ) ~ : 3 T R 2 3 3 4 : : 1 = v h.k C C.G.S.Z.6XJX9XH.S.H.9XJX5XS.n.x X m h.k Z b.S.K.} P U U ' +.[ N W.qXSXcXcXzXlX",
"kXs $.) ~ ~ ( ) U : P Q R 2 3 3 4 : 2 1 2 + j.Z C b.S.Z.Z.V.H.9XeXeXeXwXH.V.n.k.& > ; f h.l h F A.-.= U U P Q #.+.{ } a K W.dXcX",
"W.T ) / Q / ( ( q 1 U / T 2 3 3 4 : 2 1 1 - % h.k l.Z.C.Z.Z.C.V.D.H.D.V.V.Z.C.C + > : - $ % F m.b.G.u = R R P T ( ) #.+.E e y J ",
"H ^ ) ~ Q ( ) ^ : P T ( U : 4 4 4 2 2 1 2 2 + j.Z D V.C.C.C.Z.Z.Z.C.Z.Z.C.Z.z.f o w 8 : = x.G.S.S.G.N = : ! ! U U Q ( ( ' #.+.Y ",
"R.T ) Q ~ ( ) T : U R ( U : U U 3 2 2 1 1 1 ; A Z k l.Z.C.C.C.C.C.C.C.C.Z.n.Z r Y X.X.0 $ B.Z.C.C.S.D = > ; ~ ( R U R ( / _ ( #.",
"&Xq ) Q ~ / ) P 1 U Q ) U : U R 4 2 2 1 1 3 ; A Z C D n.C.C.V.C.C.C.V.C.C.k.l ; ..4.2.X.y V.Z.C.Z.V.h = 2 > ; Q ) ~ R R / / / ! ",
"vXJ I ^ ~ / ( 3 4 T Q ) U : P Q P 2 2 3 1 3 ; j.C C C x.z.V.C.V.V.C.C.n.k.D h 0 [ >.4.4.X.S M.Z.b.k.% - 2 2 > ; Q ( / Q R ~ / / ",
"pX:Xy E / / ~ - 5 R Q ( T > P R T 3 2 3 3 3 ; A Z z D n.l.k.z.n.n.n.z.x.z.k.% Y 5.X.%.4.5.F l.x.h.c = 2 2 2 2 : ; ^ / / ! Q / T ",
":XvXR.I / / Q M M 6 Q ) R : P R R U 2 3 3 3 - & C C C l.V.b.k.D k.x.l.V.b.Z $ Y %.4.5.5.@.j C j.f 2 P 2 2 2 2 2 : - ! ~ ~ ~ ! i ",
"mXpX&X8 ~ ( E R.bXE.8 ! ~ : 4 R R R 3 1 3 4 : f g g h z k.n.V.B.B.V.V.n.D h 7 @.@. .5.>.[ f f r I T T U 3 2 2 2 , & u _ ~ ~ ! N ",
"KXCX2Xm W ' E H vX:Xr - ^ 3 3 T R R T 3 3 4 > j.g.x h g g h l D D D l h g * 8 {  .@.@.{ $ r - < P T U T U P 1 , c <XE.I / ~ Q M ",
"KXHXsX~.: ' E H vX:Xt 6 q 2 3 U R T R U 3 4 ; f l Z B.b.D S l h h h h h z % = Y  .@.Y ; > 2 1 2 3 T U U U T I % <X;X3XG E / E J ",
"DXKXyX3Xm W ! H 2X,XM 6 3 ; 4 P T T T T P 6 r A g j D b.B.V.V.B.B.B.l.x h + < : q : > 2 1 1 2 2 1 P T U U T > !.,X-XpXqXe ( U 7X",
"kXFXZXlX:Xa ] B >XvXJ 6 4 > P P T R R R T 6 f h.k C D V V S D D D S j h x $ < 4 1 3 4 4 2 3 3 1 2 3 U T T 6 R.2X-XpXDXIX*.] s GX",
"gXnXKXHXlX$Xt q =XaX!.= : P P P 5 6 2 6 I 2 A Z z k.V.B.b.l.x.x.D k.l.l.z f : 3 3 4 5 , > = , 6 4 3 P T 6 m ,X:X<XZXKXIX0X, <.IX",
"gXgXCXKXZX<X:Xm W.aX,XH = 6 - r m E.~.E.m & j.k z l b.n.b.n.n.B.n.n.B.C x x ; 4 4 5 ; R.!.~.J r , , , = J >X:X:XpXKXHXGXqXM VXuX",
"gXgXlXFXHXmXgX,X&X<X:X,X!.E.E.$X2X2X,XvXR.A g.k l.D l z.n.b.b.b.n.b.C h k.k.$ 6 6 ; ~.vXaXaXvX&XR.J H !.>XpXyX<XpXKXFXuXyXdXsXuX",
"gXgXlXCXHXKXKXmXlXFXDXZXsX2XaX:XyXyX:X=Xc j.k l.n.n.D h k.z.z.z.l.l g k.n.z.h @ m !.aX=X:X;X<X>X3X3XvX>XgXKXKXCXCXKXjXyXlXuXuXuX",
"gXgXgXgXgXgXCXKXHXKXKXKXGX=X:X:X:X;X2XW.f g.D b.b.b.b.l h z C z h h Z b.b.n.k.g :XaX;X:X:X:XgXmXjXyX<X:XHXGXBXFXZXhXlXuXuXuXuXuX",
"gXgXgXlXlXlXlXjXkXmXHXHXHXFXZXyX:X;X,Xm A C x.b.b.b.z.z h % g % h z Z b.b.n.z.g R.aX;X:XpXFXKXKXKXGXgXZXDXgXlXuXuXuXuXuXuXuXuXuX"
};
