/* XPM */
static char *purplestone[] = {
/* columns rows colors chars-per-pixel */
"64 64 247 2 ",
"   c #040404",
".  c #0B0B0B",
"X  c #0A0708",
"o  c #151414",
"O  c #1C1B1B",
"+  c #191517",
"@  c #110C10",
"#  c #281A17",
"$  c #321A19",
"%  c #240F10",
"&  c #33211C",
"*  c #39251E",
"=  c #2E231D",
"-  c #170C29",
";  c #1A1526",
":  c #1A1434",
">  c #110A2F",
",  c #25182A",
"<  c #261636",
"1  c #341834",
"2  c #282628",
"3  c #372925",
"4  c #39332D",
"5  c #2A2834",
"6  c #362838",
"7  c #3C3B3B",
"8  c #353535",
"9  c #2B3335",
"0  c #1D201E",
"q  c #52192F",
"w  c #691B34",
"e  c #462C27",
"r  c #47332B",
"t  c #463935",
"y  c #553732",
"u  c #512C32",
"i  c #5C252B",
"p  c #49433C",
"a  c #57443B",
"s  c #65463C",
"d  c #301949",
"f  c #332B48",
"g  c #2D1D70",
"h  c #362575",
"j  c #3A286A",
"k  c #1A1263",
"l  c #4B1D4E",
"z  c #731C4E",
"x  c #453C44",
"c  c #463653",
"v  c #502D4F",
"b  c #712854",
"n  c #6C1C68",
"m  c #513271",
"M  c #6C2D6E",
"N  c #3E4243",
"B  c #4B4A4B",
"V  c #464446",
"C  c #534947",
"Z  c #57544D",
"A  c #534C53",
"S  c #545455",
"D  c #5A5959",
"F  c #494F54",
"G  c #674A43",
"H  c #68534B",
"J  c #76534B",
"K  c #655B58",
"L  c #795A52",
"P  c #734B49",
"I  c #68655D",
"U  c #76655B",
"Y  c #74725F",
"T  c #4E4A6A",
"R  c #59526A",
"E  c #6A5270",
"W  c #5C6566",
"Q  c #636464",
"!  c #6A6A68",
"~  c #756C65",
"^  c #75746C",
"/  c #7A756C",
"(  c #7A786E",
")  c #757365",
"_  c #696A73",
"`  c #6E7378",
"'  c #737573",
"]  c #7C7673",
"[  c #7D7B72",
"{  c #75797A",
"}  c #7C7C7C",
"|  c #767579",
" . c #726B72",
".. c #881D50",
"X. c #922751",
"o. c #AD2754",
"O. c #8C306F",
"+. c #B02F6F",
"@. c #A51A4B",
"#. c #CF336A",
"$. c #DA3362",
"%. c #845B55",
"&. c #84544E",
"*. c #8A635C",
"=. c #90655D",
"-. c #8C4772",
";. c #B04874",
":. c #936C66",
">. c #87776D",
",. c #96736C",
"<. c #847C74",
"1. c #887C77",
"2. c #977A72",
"3. c #8C6A66",
"4. c #BD415B",
"5. c #CB4F74",
"6. c #E0506D",
"7. c #7F817C",
"8. c #828176",
"9. c #83827B",
"0. c #8B847C",
"q. c #8C8A7E",
"w. c #97857C",
"e. c #A2877D",
"r. c #6A3C82",
"t. c #764F8A",
"y. c #797B85",
"u. c #6A6283",
"i. c #61558F",
"p. c #B33483",
"a. c #934F87",
"s. c #AA4C87",
"d. c #85728D",
"f. c #B17592",
"g. c #9277A4",
"h. c #EE4F89",
"j. c #CA6E92",
"k. c #EB668B",
"l. c #D1548A",
"z. c #C03084",
"x. c #7B8385",
"c. c #7B8789",
"v. c #7E8F93",
"b. c #838483",
"n. c #8C8482",
"m. c #8D8C82",
"M. c #8B8B8B",
"N. c #878889",
"B. c #938C85",
"V. c #9D8C84",
"C. c #938B8B",
"Z. c #988681",
"A. c #939185",
"S. c #95948A",
"D. c #99968A",
"F. c #9C988B",
"G. c #948D95",
"H. c #8C9495",
"J. c #949394",
"K. c #9C9A9B",
"L. c #999897",
"P. c #8A8E8E",
"I. c #A28E84",
"U. c #A49186",
"Y. c #A5948B",
"T. c #A8968D",
"R. c #A59C8E",
"E. c #A59A94",
"W. c #AA9B92",
"Q. c #A59B99",
"!. c #A7829C",
"~. c #A4A39C",
"^. c #ABAA9E",
"/. c #A9A397",
"(. c #B0A599",
"). c #9796AB",
"_. c #A49DA4",
"`. c #AC88A4",
"'. c #9BA5A5",
"]. c #99A0B0",
"[. c #A4A4A4",
"{. c #ACA3A4",
"}. c #ADADA2",
"|. c #AAABAB",
" X c #A5A8AA",
".X c #B2ABAC",
"XX c #B1ABA7",
"oX c #ACB1AC",
"OX c #B3B2A4",
"+X c #B9B7AA",
"@X c #A6ABB3",
"#X c #B5ADB1",
"$X c #B8ADB3",
"%X c #ACB3B8",
"&X c #B5B2B4",
"*X c #BAB2B6",
"=X c #BCB5BA",
"-X c #B5BABB",
";X c #BCBABC",
":X c #B9BCB5",
">X c #9EA49C",
",X c #C1BABA",
"<X c #CAB4B3",
"1X c #D49BAA",
"2X c #BBC2BA",
"3X c #C5C3BA",
"4X c #D7CABC",
"5X c #B6BBC2",
"6X c #BABEC4",
"7X c #ACB4C1",
"8X c #C4BBC2",
"9X c #C9BEC5",
"0X c #BBC3C5",
"qX c #BBC5C8",
"wX c #C2C4C4",
"eX c #CAC1C7",
"rX c #CCC3C9",
"tX c #C4C9CC",
"yX c #CACBC7",
"uX c #D1C7CD",
"iX c #D4D4CA",
"pX c #C4CDD1",
"aX c #C5C7D5",
"sX c #D4CBD2",
"dX c #CAD3D5",
"fX c #CCD6DA",
"gX c #CAD5D7",
"hX c #D4DBDC",
"jX c #D7D8D6",
"kX c #CDD2CC",
"lX c #DDE2DC",
"zX c #E4E6DC",
"xX c #D4DDE3",
"cX c #CED8E0",
"vX c #E5DCE3",
"bX c #DBE5EB",
"nX c #DAE4E8",
"mX c #DDE8F1",
"MX c #E6EBE7",
"NX c #EDF2EB",
"BX c #F2F4ED",
"VX c #E3ECF2",
"CX c #F5F6F2",
"ZX c #FCFCFC",
"AX c #F7FAF4",
"SX c #E6F1F4",
"DX c #E9DACF",
/* pixels */
"{ P.^.^.~.^.^.^.^.OX'.c.'.MX' -XZXZXBXM.! S.L.S.m.^.9.0.~.F.}.b.^ [ 8./ [ 3X,X8.0.0.q.B.B.B.A.^ K ~ ~ ~ ) ) ) Y ) ) ~ Y C 2 3 4 ",
"{ P.^.}.^.^.^.^.^.OX'.c.H.MX' &XZXZXBXM. .S.L.S.m.^.9.0.F.D.~.b.^ 8.8./ [ <X:X8.0.q.q.B.B.B.A./ K K ! ^ ) 8.F.A.8./ I ~ V 2 2 3 ",
"{ P.OX}.^.^.^.^.^.OX'.c.H.lX' oXZXZXCXJ.` D.~.S.m.^.7.9.D.S.J.9.^ 9.8.^ 1.^./.0.0.q.q.m.B.A.S./ K B I / ) A.iX3X}.A./ ^ 7 O 2 = ",
"{ M.OXOX^.^.}.^.}.OX'.c.c.hX[ |.ZXZXZXL.` J.^.S.m.[.x.9.F.S.S.9.' 9.9./ 1.q.q.9.0.q.m.m.A.A.D./ K V Z / ) F.CXCXNXiX^.1.7 $ 4 4 ",
"{ M.OXOX^.}.}.^.}.OX[.H.'.jX{ [.ZXZXZXL.` J.^.J.m.[.N.b./.F.F.b.' 1.7.( 1.D.A.9.0.q.m.m.A.A.D./ K 7 Z ( ( F.AXZXZXCXjXm.B t t 4 ",
"{ M.OXOX^.}.}.^.}.OXoXoX3XjX7.>XZXAXZXL.` J.^.L.S.}.M.b.F.q.m.b.{ [ { ( [ OX}.1.0.q.q.m.A.A.D.| K 7 Z / ( A.jXCXZXZXZXF.I K t 4 ",
"{ M.OXOX}.}.}.^.}.}.0XyXiXdX{ L.ZXAXZXL.` J.^.^.~.}.M.9.~ p p ! { 7.9.[ ( <X:X8.0.0.q.m.B.A.S.| K 7 Z ) ^ 8.~.yXzXZXZXF.( 8.p 4 ",
"{ M.}.OX}.OXOX}.}.}.0XwXyXpX{ H.CXCXZXL.` J.^.^.~.OXM.Z t # # p ~ 9.q.[ ( 3X3X8.0.0.q.m.B.A.S.| K 8 Z ) ! [ q.S.^.3XiXA.^ [ p r ",
"y.N.}.OX}.OXOX}.}.}.0X%X|.qX{ M.BXBXZXL.` H.^.^.~.OX[ 3 # + o & G 1.m.[ ( :X,X8.0.0.q.m.B.A.S.| K t Z ! I 8.m.( 9.A.F.q.Q I p r ",
"y.N.}.OXOXOXOX}.}.}.0X#Xx.5X7.N.NXNXZXL.` P.~.~.Q.OXD # 3 3 # = t L q.( ( :X<X8.0.q.m.m.B.B.A.| K Z I ^ I q.R.9.oX~.8.8.A V p t ",
"x.N.}.OXOXOXOXOXOX}.0X;XP.-X9.9.MXNXAXK.` M.~.L.~.S.4 4 G G y 4 e a 9.[ [ +X+X8.0.q.q.m.B.B.A.| ! ! ! ) ! m./.m.lXjX^.7.D Z p t ",
"x.M.[.OXOXOXOXOXOX}.0XjX+X:X9.{ MXMXBX'.{ M.>XL.F.! & H *.*.L y e r | 8.[ OXOX8.0.0.q.q.m.B.A.| ! ^ ^ ) ! A./.F.ZXZXjX9.^ ) p t ",
"b.N.~.OXOXOXOXOXOXOX2XBXjX2X9.{ MXMXNX'.{ M.L.L.m.t r 3.:.:.*.G e 4 K m.[ OXOX0.0.q.q.q.m.B.A.| ! ^ ^ ( ^ D.^.~.ZXZXNXm.[ >.a p ",
"b.M.[.OXOX+X+X+X+X+X2XAXzX2Xb.' MXNXAX'.{ H._.J.K 3 J 2.2.,.:.L e & a ( ( OXOX0.0.q.q.q.m.B.B.| ! ' / ! ( q.9.7.uXjX:XI D Z 4 4 ",
"N.M.[.OXOXOXOXOX+X+X2XNXjX2XN.^ MXMXNX'.{ H.L.m.r 3 3.,.,.2.:.%.r # r K / }.OX0.0.q.B.A.A.A.C.| K { [ S D I V B { 9.I t 6 5 6 6 ",
"N.N.L.}.}.^.~.~.^.~.2XkX2X:XP.' MXdXpX'.y.x.x.~ 4 4 L L L :.:.P y # * p / ^.OX0.0.A.D.D.D.D.D.| D N.{ 8 2 2 - - + + o 1 l , R A ",
"{ ' b.N.x.L.~.m.m.N.F.>XF.L.b.7.hX-X].P.S T T K & 4 s y y G s e e # & a 1.^.OX0.q.[ ( ( ( ' ^ Z V S V - @ @ . - d d - v m f }  .",
"{ ^ { ` y.'.oX{ D S D W D D W ! ).y. .W 2 d T <.& y s y e y e 3 e # # C 0./.OX9.8.Z C C V V V 5 5 5 : - , , - 6 -.m c  . .Q m.b.",
"b.b.M.c.|.fXdXH.5 : : : : : < 6 d 6 u 5 - k G.iXy G %.J P G y a a & @ 4 <.V.R.~ I ; : : : > - : 1 d d l M M f B f.R E _.J.J.n.n.",
"x.x.N.{ b.@XhX@XR T T T T T T R T E >.y.W i.@XiXG L :.%.&.%.G G P e @ 3 x x V 6 6 - > > - - - > : < M a.a.t.P.J.<X_._.wXuXuXwX,X",
"` y.x._ V ` nXdX@X@X].].].].].].].@XwXjX|.).%XOXH L ,.=.&.*.P P &.e # & < > > > < < : : d l l d : + a.1Xs.d.5X6XrXsXsXjXNXNXNXMX",
"R y.d.R ; B mXmXMXnXxXxXdXdXpXpXpXqXMXAXjXtXwXE.G s ,.*.%.%.P P %.r # * f k k h m M m m t.s.a.M d ; !.<Xj.g.0X-X;XtXuXsXvXvXvXMX",
"u.d. .T , B mXnXSXSXmXmXxXhXfXdXdXpXNXZXlXiX3XR.s e ,.:.*.%.P J %.3 # 3 c g g m r.r.r.t.f.s.M m d # -.j.k.`.5X-X=X6X8XrXsXjXjXyX",
"G.f.E T 1 S mXfXVXVXmXmXnXhX-X@XfXfXAXZXlXiX,XR.G & :.2.:.%.L L L # + e v h h i.g.d.t.`.1Xs.m m l # O.s.l.`.5X5X-X-X=XeXuXsXrXn.",
"+X1XO.m 1 A mXdXmXVXVXVXmXnXP.` hXhXZXZXhXiX+XU.H & H V.2.:.%.*.G + # * A h h ).aX).a.1X4Xj.r.E l $ +.M O.f.6X5X5X-X;XiXzXhX8Xt ",
"f.l.;.R q Z NXdXnXmXVXmXmXmX|.J.fXhXZXZXdX3XOXY.H $ t 2.,.3.L J r # # $ c h h y.).a.s.j.j.k.a.-.z $ X.n X.j.5X5X5X-XwXNXCXMX9X<.",
"O.5.5.-.w A NXdXxXnXMXnXmXnXdX0XfXhXZXZXtX:XOXE.H $ 3 ,.:.3.J s r $ $ $ v h h r.E O.p.s.s.k.l.5.X.$ ..n o.j.7X5X5X-XuXAXZXCXrX=X",
"b +.5.;.X.C jXpXfXnXnXnXnXnXnXxXdXfXZXAXtX+X}.D.s $ 4 ,.,.:.L s y * # # y m h h n p.z.O.p.k.j.k.5.i X.+.#.f.7X5X5X-XkXZXZXZXuXeX",
"-.-.;.;.4.r x.0XdXhXnXnXnXhXfXfXdXdXAXAXwXOX}.w.y # 3 ,.2.,.%.L s $ o + e R h m +.l.h.+.O.;.;.6.6.i w ..z E &X&X5X;XiXZXZXAXtX8X",
"-.R -.5.4.e { 0XdXhXnXnXxXdXqXqX0XtXCXAX2XOX^.,.4 # t ,.2.,.*.%.s e & # e R j M h.h.h.p.n M +.6.6.q u b 6 _ %X%X-X-XiXZXZXAXeX,X",
"b v o.6.4.y 0XpXpXfXhXhXfXpX0XqX|.;XBXBX:X}./.U & & G 2.2.,.*.*.s s s e e G c b $.6.+.+.n z $.k.6.* N S B x.7X%X-X%XiXZXZXCXrXrX",
"q ..$.$.X.6 %XqXpXfXhXhXdXfXfXcXK. XNXBX:X[.B.Z e G *.2.2.,.:.*.P P %.L L 2.] v i w +.....#.$.h.+.# F D S x.7XoX%X%XkXZXZXBXeXrX",
"w @.@.@.l ; N.0XpXfXfXfXpXfXnXnXL.M.hXNX;X[.0.U L :.,.2.2.,.:.*.%.%.:.2.e.W.Y. .y $ +...o.$.#.+.n ; V V 7 ` 7X@XoXoXkXZXZXNX8XeX",
"..X.q 1 : o ^ 0XdXdXdXpXqXcXxXnXL.' tXMX2XL.w.V.U.e.2.2.,.:.:.:.*.:.w.I.U.U.W.{.2.3 $.+.$.+.b l d - 2 2 + ! %X@X@X|.kXZXZXNX,X8X",
"u u , ; - O 9.tXfXdXdXqX0XxXmXmX'.Q oXzX:XF.V.U.Y.T.w.w.w.2.w.w.w.I.Y.U.U.U.Y.W.W.H ..z ..l 1 : - X 7 B 7  .%X@X X[.yXZXZXzX;X8X",
"' ! ! ! Q ! ^ 0XfXdXtX-X;XxXfXxX XQ H.yXOXY.U.U.U.W.U.U.Y.U.Y.Y.Y.T.T.U.U.U.U.U./.1.u u u 6 5 < 5 2 D | Q { @X@X[.K.:XZXZXlX=X=X",
"MXnXmXmXnXfXx |.jXpX;X|.;XxX|.dX@X! x.OXW.U.U.U.U.T.U.U.W.W.T.Y.U.U.U.Y.Y.U.U.U.I.V.S D A S S S S D d.M.{ N.@X X_.L.|.BXBXiX=X[.",
"AXMXhXhXjXtX9 '.hXwX|.L.&XxXG.pX%X' b.Q.W.U.U.U.U.Y.Y.I.Y.Y.Y.Y.U.T.Y.Y.W.U.Y.U.V.V.b.J.P.P.C.M.G.G.! ! K { '.L.J.b.L.DXiX,X.X0.",
"NXjX[.P.{ ' 2 x.|.|.'.b..XxXG.dX|.W { E.W.Y.Y.U.U.Y.Y.I.U.Y.Y.U.Y.T.Y.Y.W.U.Y.U.V.V.J.M.} { { } } ' 7 4 8 ! '.L.K.M.[.4X4X:X.Xn.",
"jXwX' V 2 2 2 S D x.L.^ oXnX|.cX'.B ^ /.W.T.W.I.U.U.Y.U.U.Y.Y.U.Y.Y.W.W.W.U.U.I.w.V.0.A 8 7 7 t 8 2 . . @ D [.L.L.E.*X3XiX3X=X{.",
"3X|.S.{ Q ' W B 5 S { Q -XMX%XnX-X! n.^.W.Y.W.U.I.Y.U.U.I.Y.Y.U.T.W.W.W.W.U.I.V.V.V.1.V 7 V V V V V V 7 4 S { { <.1.{ OX:X.X,X.X",
"m.! { ' D ' { Q S ! x.{ 0XxX[.fX6X7.J./.W.U.W.U.I.Y.Y.U.I.Y.Y.Y.W.W.W.W.T.U.V.V.V.V.1.S  .D x V Z C A x B V p B A V 8 ' E..X8X.X",
"S 7 S B 2 B ' L.%X X'.|.5X0XC.0X;Xb.L.W.W.Y.W.Y.I.T.Y.U.I.Y.U.Y.W.W.W.W.U.U.w.V.V.w.C.b.{.Q 8 7 K V 7 8 Z t O 8 4 2 o B B.#X,X.X",
"L.H.H.H.N.L.-XtXtXqX0X5X%XoXL.;XwX{._.W.W.Y.Y.E.U.W.Y.U.I.I.U.W.W.W.W.W.V.V.w.I.V.V.D.K.#X} Q ! ' ! ! _ G.C.| <.[ ` ! J.|.}.|.L.",
"wXpXtXtXpXdXnXhXfXfXfXdXqX6X6XdXfXwX{.W.W.Y.U.E.Y.W.Y.U.I.e.U.W.W.W.T.W.V.w.w.U.V.V.D.Q. XG.K.K.L.L.L._.=X*X+X#X&X2X3XeX;X{.[.L.",
"-X0X0X0XqXqX0X0XqXqXqXqXqXqXaXcXfXqX.XW.W.T.U.W.R.W.U.U.I.I.U.W.W.W.Y.E.V.2.I.Y.V.V.C.M.E.{.#X#X=X=X=X=X*X=X=X=XjXCXBXjX=X.X|.{.",
"W W B S S S S D Q Q Q Q Q Q Q ` ` b.^.(.W.W.U.W.W.Y.I.I.I.W.T.W.W.W.Y.Y.V.1.I.U.V.I.n.! | 9.C.J.K.L.L._.[.[.[.[.jXZXAXdX&X*X;X=X",
"N 7 . + ; o + O O O O O 0 O 2 V 8 S /.^.W.Y.U.W./.Y.I.I.V.W.Y.W.W.W.Y.I.V.,.V.U.V.I.9.7 7 t V B S S S D D K Q Q m.[.|.S.9.<.b.M.",
"V 7   @ O       X . . . . @ 2 V 0 7 L.^.W.U.V.W.^.E.U.V.V.I.U.W.W.W.Y.V.V.>.V.U.V.I.1.o       . . . . . . @ O + O 2 7 p t 3 3 8 ",
"o @   . O . X   O 7 8 9 9 F B 9 O 2 S./.W.U.V.E.^.W.U.V.V.V.U.W.W.W.Y.V.V.>.V.U.V.I.1.o X . @ o o o       . o     . # & # . o o ",
"X     @ o       9 x.y.W S V 9 o O O A.(.W.U.V.E.^.W.U.V.V.V.U.W.W.W.E.V.w.,.V.U.V.I.1.+ o # O O O o       . o .     . % . . o   ",
"9 o + 5 O . . . c -X&Xv.W ; . . O 2 B./.T.U.w.D.^.E.U.V.V.V.U.E.E.W.E.V.w.>.V.U.V.I.<.O + 3 2 O O o . .   . o o . X       o +   ",
"H.! D ` W B V x Q -XoXH.Q 8 2 2 8 f A.W.W.U.2.B.^.E.U.V.V.U.U.E.Y.E.E.V.w.>.V.U.I.Y.>.O o $ O o o .       . . . o @   . o O .   ",
"5X|.K. X'.H.C.M.L.=X&X XG.{ } | } y.E.Y.Y.U.1.1./.E.Y.V.D.U.Y.E.U.Y.E.D.w.) V.U.I.Y.<.8 2 2 2 2 , O . X   . .   . X     . .     ",
"5XwXwX8XwXwXeXeX8X=X;X8X8XwX8X8X8X,X{.Y.Y.U.1./ E.E.D.V.D.U.E.W.U.U.E.F.w.U V.U.U.U.n.Q D R D D A B 7 6 2 3 2 O , 2 O O o o o o ",
"&X=X=X*X=X=X=X=X=X=X=X=X=X8X,X,X,X,X{.Y.U.U.2.>.W.E.V.V.U.U.W.W.U.V.Y.D.w.L V.U.Y.I.Q.=X=X$X#X#X.X X{._.Q.L.K.C.C.C.d.<.|  .! E ",
"#X&X&X&X&X&X&X&X*X=X=X=X=X=X=X=X=X;X{.U.U.I.2.,.E.E.I.I.U.Y.W.W.U.V.I.D.w.L V.Y.Y.V.{.uXsXsXuXuXrXuXuXrXrXrXrXrXeX9X,X,X;X&X.X#X",
"#X&X&X&X&X&X&X*X*X*X*X=X=X=X=X=X=X;X{.Y.U.I.2.,.E.E.U.U.Y.E.W.W.U.V.V.V.w.L V.Y.U.V.{.9X8X8X9X9X9X9XrXrXrXuXuXsXsXsXsXjXjXjXjXjX",
"#X#X&X&X&X#X&X&X*X*X*X*X*X*X*X*X*X=X{.E.U.V.1.,.E.E.U.U.Y.W.W.W.U.V.V.V.w.U V.U.U.V.{.8X8X8X8X8X9X9X9X9X9XeXeXrXrXrXrXrXuXuXrXrX",
"{..X.X.X#X.X#X#X#X*X*X*X*X*X*X$X#X*X{.Y.U.V.0.>.Y.E.Y.Y.E.W.W.Y.U.U.Y.U.w.U V.U.U.V.{.8X8X8X8X8X8X9X9X9X9X9X9X9XeXeXeXrXrXrXeX9X",
"E.Q.Q.Q.{.{.{.{.{..X.X#X#X#X$X$X=X,X{.Y.U.V.w.>.U.E.E.E.E.W.Y.1.w.w.w.w.w.U V.Y.U.w.{.9X8X8X8X8X8X9X9X9X9X9X9X9XrXrXeXrXrXrXeXeX",
"1.B.B.B.C.C.C.D.L.L.E.L.L.Q./.,XhXzX*XF.U.V.>.~ I.W.W.W.W.Y.0.L ~ U C ~ ,.>.I.U.V.0..XeX8X9X9X9X9X9X9X9X9X9X9X9X9X9XeXeXeXeX9X9X",
"/ 1.0.0.n.n.n.n.M.M.B.J.J.L.L.3XBXAXyXF.U.V.1.U 0.B.w.1.,.U G y a 3 = t C 1.Y.I.V.1.Q.*X$X*X*X,X,X8X8X8X8X8X8X9X9X=X$X8X9X9X9X8X",
"/ 1.0.0.n.n.n.n.n.n.n.G.G.S.J.3XAXZXiXF.U.V.w.U / 1./ U H y * * & X % % $ 1.E.I.V.1.G.{.{..X.X#X#X=X,X,X8X,X8X9X9X#XQ.,X9X9X9X,X"
};
