/* XPM */
static char *vicperri[] = {
/* columns rows colors chars-per-pixel */
"64 64 251 2 ",
"   c #3C0C01",
".  c #360701",
"X  c #381309",
"o  c #2B1316",
"O  c #35191C",
"+  c #391B1E",
"@  c #341615",
"#  c #290D09",
"$  c #3C1D21",
"%  c #351B24",
"&  c #3E2126",
"*  c #440D03",
"=  c #4B0B03",
"-  c #570B03",
";  c #4C1403",
":  c #471606",
">  c #531503",
",  c #5C1205",
"<  c #551904",
"1  c #5B1A06",
"2  c #4B1D11",
"3  c #630B03",
"4  c #6B0901",
"5  c #760D03",
"6  c #631306",
"7  c #6C1306",
"8  c #681C05",
"9  c #731406",
"0  c #7C1406",
"q  c #771A06",
"w  c #5A230B",
"e  c #50260E",
"r  c #6B2105",
"t  c #682609",
"y  c #732305",
"u  c #7B2505",
"i  c #772A08",
"p  c #7B3509",
"a  c #763A17",
"s  c #6B3113",
"d  c #44242B",
"f  c #47262B",
"g  c #4D2A32",
"h  c #442630",
"j  c #512C34",
"k  c #7B4519",
"l  c #774817",
"z  c #774724",
"x  c #725031",
"c  c #6F5A47",
"v  c #7A6859",
"b  c #5B666D",
"n  c #59666E",
"m  c #4E6473",
"M  c #536571",
"N  c #596871",
"B  c #61676A",
"V  c #64696B",
"C  c #6A6B69",
"Z  c #6B6966",
"A  c #746D65",
"S  c #766E65",
"D  c #7D7163",
"F  c #767268",
"G  c #870D02",
"H  c #841506",
"J  c #8A1506",
"K  c #851C06",
"L  c #971805",
"P  c #950C01",
"I  c #A81B06",
"U  c #B61D06",
"Y  c #832A06",
"T  c #872808",
"R  c #952809",
"E  c #873608",
"W  c #983709",
"Q  c #883713",
"!  c #8C3111",
"~  c #A72707",
"^  c #BD2306",
"/  c #A73A09",
"(  c #AE3A0F",
")  c #C42207",
"_  c #CD2407",
"`  c #C62B05",
"'  c #D32507",
"]  c #DB2807",
"[  c #D82807",
"{  c #CE3906",
"}  c #E32A08",
"|  c #EB3507",
" . c #F53409",
".. c #C81E04",
"X. c #86450D",
"o. c #99460A",
"O. c #87481A",
"+. c #964B18",
"@. c #97571A",
"#. c #8C5618",
"$. c #A6490A",
"%. c #B8470A",
"&. c #A8540C",
"*. c #B55205",
"=. c #A74919",
"-. c #A85916",
";. c #B95718",
":. c #B74918",
">. c #B36616",
",. c #895528",
"<. c #9B5725",
"1. c #8F4C23",
"2. c #A65C27",
"3. c #B15425",
"4. c #986632",
"5. c #A66327",
"6. c #B46827",
"7. c #B8772B",
"8. c #A96C37",
"9. c #B66A34",
"0. c #B27639",
"q. c #99621F",
"w. c #C34C0E",
"e. c #C74908",
"r. c #C85607",
"t. c #D25806",
"y. c #C84D14",
"u. c #CB5515",
"i. c #D55717",
"p. c #F54C02",
"a. c #F54702",
"s. c #F85303",
"d. c #F95815",
"f. c #EA4D0D",
"g. c #D96805",
"h. c #CF6E11",
"j. c #E56902",
"k. c #FB6B04",
"l. c #E87901",
"z. c #FE7303",
"x. c #FE7C02",
"c. c #FE730B",
"v. c #F97907",
"b. c #FE651D",
"n. c #FC6D19",
"m. c #EC7719",
"M. c #FD7316",
"N. c #FD7B15",
"B. c #FE741B",
"V. c #FE7C1A",
"C. c #F37818",
"Z. c #E86A18",
"A. c #C95823",
"S. c #DA7D2C",
"D. c #C97B38",
"F. c #D57C36",
"G. c #CB6F2D",
"H. c #FE6C21",
"J. c #E57D26",
"K. c #FE7622",
"L. c #FE7B22",
"P. c #FA7929",
"I. c #E47A36",
"U. c #EB6E2A",
"Y. c #826E5C",
"T. c #8B735C",
"R. c #87725D",
"E. c #977657",
"W. c #996E45",
"Q. c #A8784B",
"!. c #B67C46",
"~. c #A57A52",
"^. c #847461",
"/. c #C17E41",
"(. c #BC8331",
"). c #FF8602",
"_. c #FB8704",
"`. c #FD8314",
"'. c #FF8A13",
"]. c #FE831C",
"[. c #FD8B1C",
"{. c #F2801D",
"}. c #FE931A",
"|. c #FE9A1D",
" X c #FF9115",
".X c #F18B10",
"XX c #FFA012",
"oX c #C98639",
"OX c #DC8435",
"+X c #D68537",
"@X c #D39236",
"#X c #E68429",
"$X c #FD8C22",
"%X c #F98625",
"&X c #FD9D21",
"*X c #FB9428",
"=X c #E38C39",
"-X c #E68B38",
";X c #FC883C",
":X c #E9943A",
">X c #F59839",
",X c #ED942C",
"<X c #FEA223",
"1X c #FEA629",
"2X c #FDAC3B",
"3X c #F9A636",
"4X c #FEB33E",
"5X c #FFB93C",
"6X c #EDA43C",
"7X c #D9A23B",
"8X c #B7834C",
"9X c #B48D54",
"0X c #9D825B",
"qX c #C58342",
"wX c #D78744",
"eX c #D89A47",
"rX c #C8944C",
"tX c #EA9945",
"yX c #FF9845",
"uX c #FD9C4C",
"iX c #F69747",
"pX c #EC8E45",
"aX c #D8AA54",
"sX c #E9A54A",
"dX c #FEAD40",
"fX c #FDAC41",
"gX c #FEA34D",
"hX c #F5A848",
"jX c #FEB241",
"kX c #FEBC43",
"lX c #FFB04E",
"zX c #FFA452",
"xX c #FFAB55",
"cX c #F3A951",
"vX c #FFB45A",
"bX c #FBBD5B",
"nX c #F8B555",
"mX c #E8B355",
"MX c #CDA363",
"NX c #EBBA62",
"BX c #FEC145",
"VX c #FEC549",
"CX c #FECB4C",
"ZX c #FEC25E",
"AX c #FFD151",
"SX c #FFC660",
"DX c #FFCB63",
"FX c #F7CD6C",
"GX c #FFD165",
"HX c #FFD56D",
"JX c #F7C274",
/* pixels */
"m m m m m m m m m M M m m M M M M M M M M M M n n n n n n B B B B B B B B n n M M M M n B V B M n V C C C V b N n 0XeXfXfXfXfXfX",
"m m m m m m M M M M M M M M n n n n n n n n n B B B B V Z C Z V B V B B B n n n n n V C Z C V E.R.V Z C C C V C eX2XfXfXfXfXfXfX",
"m M M M M M M M M M M N n n b b b V V V B V B V V C C Z Z Z Z Z Z V B B B B V V Z S S S S D ~.Q.Y.S S S S C V rX4XfXfXfXfXfXfXfX",
"F M M N N N N N b V V V C V V V Z C C C C V V V C Z S A A A A S S A V B C A D v Y.Y.Y.Y.v T.R.S D D F F D C C hXfXfXfXfXfXfXjXfX",
"fXeXF M V N b V C C C C V D T.^.D S S S S C C Z S F Z c x x c v v x z z x c v T.T.T.T.T.T.T.T.R.R.R.D D T.T.S rXjXfXfXfXfXfX*XL.",
"fX4XfXT.N V C A C C C R.!.!.T.D D F D F F D D F A c @.r.t.t.%.s t / w.r.r.;.@.c E.E.E.E.E.E.E.T.T.R.E.eXhXfXsXeXfXfXfXfXfX%Xn.B.",
"fXfXjXhXF V C A A ^.!.qX~.F ^.T.T.T.T.T.R.T.^.c z X.g.y./ T W r 1 u 8 q W w.m.>.x E.E.E.Q.Q.Q.E.T.E.hX4X4XjX4X4XfXfXfXjX*Xn.K.K.",
"jXfXfX4X9XA F F F ~.~.F F T.T.E.E.E.E.T.E.Y.z h.$.*.u./ = , s Q k 9.9.<.a t / m.#.x 8XQ.!.!.Q.E.E.8X4X2X4X4X4XjXjXjXjX2X%XK.K.K.",
"jXjXjX4X9XF ^.^.^.R.R.E.E.E.E.E.E.E.E.~.E.z h.u.W %.w.8 2.uXxXxXzXxXxXxXxXpX<./ Z.-.4.8X!.!.Q.~.~.~.sX4X4X2XjXjXfXjX*XK.K.L.K.K.",
"4X4X4XhXE.T.T.T.E.E.E.E.E.E.~.~.~.~.~.~.z h.u.w.%.y./ F.zXD.D.pXuXuXuXtX1.1.9.a W i.&.,.Q.!.Q.!.!.!.!.3X4XjX3X3XjX*XB.K.L.L.L.L.",
"4X4XfX8XE.E.E.E.E.~.~.W.4.W.W.~.~.Q.8X,.*.i.w.w.y.%.=.+.t s a 9.xXzXxXuX+.! R R 8 K ~ $.k Q.!.!.!.D.OX4X2X*Xn.*X2XL.L.L.L.L.P.F.",
"4X4XjXeX8XQ.~.~.Q.4.z O.X.o.o.o.@.2.1.E %.%.w.y.$.u K T 3.G.A.( G.wXG.3.( I.pXgX=.8 J W h.,.qXD.D.S.#X*Xm.Z.m.$X$XL.L.L.J.D.!.Q.",
"kX4X4X5XhX/.qXqXqX0.!.!.!.Q.8.2.+.p / $.$.%.w.W 9 I A.zXwX2.9.I.R ~ :.G D.z a 1.9.u K T >.@.D.S.S.J.J.Z.Z.P.$X$X$X$XI./.Q.!.D.D.",
"*X4XkXBX6X6.5.5.5.0.0.!.!.!.0.4.k $.r.w.w.%.E 8 W J pX9.a 2.<.tXA.:.vX0.8.pXxXpXzX!.5 / E 1.OXS.S.J.J.J.$X$X$X%XOX/.!.!./.D.D.D.",
"n.$X6Xq.X.+.@.+.o.o.$.+.+.+.o.*.r.r.w.%.W r > - Z.R =.pXxXvXvXpXW I.;XuX0.=.F.F.D.=.T W Y 6.OXS.S.S.#X$X&X#X+XD.!./.D.D.D.@X6X6X",
"V.Z.p &.,X:X(.q.o.$.t.t.e.r.r.e.%.%./ W T =.! . :.H.~ / =.3.=.( I.uXU.P.I.pXU.A.A.tX8.t -.#XS.S.#X*X*X#XF.D.D.D.D.D.D.+XjXkXkXkX",
"].g.m.[.u.&.r.t.r.w.%.w.w.w.w.%.%./ W y E y.i.=.i.K.;XpXF.3.I.iXtXwXwXwXwXwX9.iXgXJX8.! 1.#XOXS.#X#XS.S.OXOX+X+XoXD.+XkXkXkXkXjX",
"].].[.$.&.g.w.W W W / W W W R T u y r ; W d.8 i.K.H.;XzXuX<.2 8.rXMXMXrX8Xe 2.zXyXNX2.1.E -.#X#XJ.J.#X#X#XOXS.F.+XF.6XBXkXkXkXkX",
"[.}.h.o.Z.W i u u u u u y r r 8 8 y Y 8 t b.y.i.H.H.P.uXuXzX1.. 1 t 8 6 = 1 zXiXvX9Xr w %.&.-.%X#X#X#X#XJ.#X-X#XS.S.>XkXkXkXkXkX",
"[.}.&.%./ r r 8 8 r w ; < r y u Y Y u 1   < =.;.Q p H.;XuXuXzX9.R ^ _ _ W wXuXzXMX: , r W h.X.J.#X#X#XJ.3XkXkXkX>X#X3XkXkXkXkXkX",
"[.|.&.%.y > 1 o.o.p y u Y Y Y u y 8 1 ; < >       . t i.P.uXzXxXuXF.G.D.uXzXzX8XX * r r %.o.X.h.%XJ.#X2XBXBXkXBXkXkXBXkXBXkX*X$X",
"n.].h.T < s C.;.X.T Y Y u y r r r r 1 > > > ; > ; ;     t :.U.;XuXxXxXxXuX+Xz .   1 > W %.t p h.{.m.2XCXBXBXBXkXBXBXkXBX4X$Xn.n.",
"B.n.B.;.: m.h.l $.u u y y y y y u 8 > > > ; ; > ; : ; ; : / u i Q +.+.+.i     : < ; u y.u : X.].{.C.3XBXBXBXBXBXBXkXBX4XB.M.B.B.",
"B.B.B.V.Z.C.k ;.u u u y r y u Y y > > ; ; ; > ; ; ; > > ; d.d.f.y.( ( U.s   ; < > y / u 1 i {.].C.$X].2XBXBXBXBXBXBXBX*XM.B.M.n.",
"B.M.M.B.V.B.X.$.u u r y Y Y y 8 ; ; ; ; > > ; : ; ; > ; : f.d.d.b.;XyXxXa * < ; t E p Y i ;.m.[.5XBXkXkXBXBXVXBXBX2X$XV.M.M.M.V.",
"2X3X$XM.B.V.&.r u r u y 8 1 > ; > > > > ;   : > 6 6 ;   w d.b.P.iXuXuXxX9.e u e.f.| | { ` ~ L =.7XCXCXBXBXBX1X$X$XN.M.M.V.].$X$X",
"VXVXVX3XV.V.].Q 1 r < : < < ; ; ; ; ; : > 7 5 5 5 G L H T Z.yXxXzXzXgXpXA.{ { ^ R ! <.5.8.0.<.7 5 O.@XCX4X$XN.N.N.V.].$X&X$X].M.",
"BXkXkXCX,XM.].p > * < o.p 1 * ; < ; , 0 4 6 s O.<.O.y L L L ( y.u.;./ ~ L W 2.0.eXnXZXDXDXDXDXNX,.4 9 X.h.`.].].$X&X$X].V.M.M.M.",
"BXBXkXVX7XE t 1 t &.h.X.i E o.p < 9 4 * l D.-X-X-X>X@.D.D.6.=.=.-.2.6.+.7.bXZXDXZXlXZXZXbXbXbXZXHX4.5 P q o.#X*X[.V.M.M.M.M.n.M.",
"VXVXkXVX2XC.g.m.`.}.{.m.}..X&.Y 0 . : 7.>X-XG.tXnXDXeX(.ZXDXDXZXnXeX7.eXDXZXZXZXnXlXZXZXZXZXZXZXbXHX9X8 P I W &.C.N.M.M.M.M.*X3X",
"2X5XVXVX3X].&X&X[.'.}.{.o.q 5 = # l :X:X-X3.eXZXDXsX+X5.+.<.<.<.+.@.ZXDXbXZXZXSXbXbXSXZXZXZXZXZXZXbXGXNXx 4 U { W &.C.].N.*XjX4X",
"N.`.*XkXVXVXCXAXkXh.o.q 0 3 # e oX>X-XOX2.eXDXDXoXr.t.j.g.g.g.g.g.%.6.ZXZXZXZXZXZXnXlXnXZXSXZXZXZXZXbXZXHX9Xs P | e.E q.@XjXkX4X",
"}.}.'.kXVXsXoXq.a H P 0   # q.>X:XF.-XO.rXDXSXoXe.l.XXl.q.7.h._.l./ 5.bXZXZXZXZXSXtXS.:XiXcXbXSXZXZXZXZXbXDXFX4.6 ] a.{ W #.7.@X",
"$.$.o.+.X.R ~ ..) 0 > # e @X>XOXOX-X<.4.GXbXSXoX%.l.)._.l.h.5.5.$.oXDXZXZXZXZXSXnX=XG.k 6.OX>XcXbXZXZXZXZXbXbXHXMXs U  .| | ( W ",
") ) _ ]  . .[ R > * . q.>X-XOXOXOX=Xa oXZXbXZXDX8.5.h.h.l.).).>.eXGXZXZXZXZXSXnX:X>X<.. - w 1.D.iXcXbXSXZXZXZXbXDXFXx I  .} |  .",
" . .} ` R , * : - : 7.3XOX-X-XOXOX>Xs 7.lXZXZX6.g.h.oXrX5.l.XXl.7.DXZXZXZXbXcX:X=XOX: 6 7 3 = 2 O.D.:XcXZXbXnXbXbXZXHXx P | } [ ",
"q 8 > : * > , 6   (.>XF.G.6.F.:XOX+.* k :XtXcX6.t.v.l.l._.).j.&.sXnXnXcXtX:X=X=X:Xa = 9 6 7 6 6 - ; O.F.2.0.tXcXbXbXZXmX# 7 [ | ",
"; > , 6 6 , 6 * q.>XOXOXOXF.+.2.s - 7   5.:X=XtXD.;.r.t.e.%.;.+X:X-X-X-X=X:X:X:X5.  9 7 7 7 6 , 9 9 - e rXSXDXZXZXZXZXtX2 = ; ~ ",
"6 6 , , 6 6 6   7.-XOX:XhXcXtXw 3 9 7 - e =X=X=X:X:X+XG.D.eXhXtXsXhXcXnXnXZXhX+X: 7 9 9 9 9 6 6 0 3 w aXGXZXZXZXZXbXlX1.* 7 , : ",
"6 6 6 6 , , 7 - k >XOXnXSXZXDXeX- 9 6 9 = 7.:X=X:XsXnXZXZXZXZXZXZXZXSXZXZXbX:Xs - 0 9 0 9 0 7 9 3 w mXDXbXZXZXZXbXhX6.: 7 7 7 7 ",
", > > , 6 0 H H = q.>XtXZXZXbXDX,.- q 0 - O.iX=XlXZXZXZXZXZXZXZXZXZXZXZXZXlX7.= 0 0 0 0 0 0 9 - s NXDXbXZXZXZXlXiX5.: 6 9 7 7 7 ",
"6 0 L L L H H H H * 5.>XsXZXSXZXsXt 5 H 0 1 +X:XbXbXbXbXbXbXZXZXZXbXbXbXbXhX<.- 0 5 H H H 5 * ,.SXZXbXZXZXlXhXOXk = 9 , 7 9 9 9 ",
") ' ' ' _ ^ J H H H - O.=XhXmXeXlXsXw - 6 * 7.lXDXDXDXSXSXSXZXZXZXDXDXDXSXtX1.* s t , 4 3 w 0.ZXbXZXZXnXhX=X2.w 3 H 0 9 7 H 9 9 ",
"' ' ' ' ' ] U H H H J 3 w 6.D.lXmX6.y.y.Z.Q O.eXeX+X@X@X7X@XsXNXsXeXqX0.2.t +.=XuXuX+X<.Q 5.ZXbXsXtXhXOX2.w - 0 H 0 0 0 6 I J 9 ",
"[ ' ' ' ' ] ) H J J H 0 4 - a D.=.d.b.b.b.i Y 8 W / Y E Y r.o.Q W R R / ~ t Z.yXuXuXgXzXzX;.(.lX:X6.O.w - - 0 0 0 0 0 0 7 K ) H ",
"[ [ ' ' ] _ L J J H 9 9 H J 5 = u H.d.b./ y / y $.Y T W R $.$.( e.( / %.( 1 Q yXuXuXuXuXuXP.p <.a 1 3 0 H 6 0 H H J H 0 0 7 ) U ",
"' ' ] ' U P J H 9 9 H H H H J J = Q n.d.: 2 1 < %.W R / / t.o.T W T y t 2 @ 2 i.yXuXyX;XU.Q , 3 5 H H 0 H 6 0 H I U H H H 7 I ' ",
"] ' ^ L J H 9 7 0 H H H H H H H H - y t & $ O O w i t i p E 2 O O % % & h d o 2 :.u.=.t , 4 H H H H H H H , H U ' _ L H J 7 L U ",
") I H 0 7 7 0 L I U I J H H H H H J 3 @ d + + + % % O % % % d f g j j j g g f $ o o o o > J 0 0 H H H H 0 , I ] _ ' ^ H J 0 7 Y ",
"0 9 7 9 J I ) ' ' ' ' ) J H H H H 9 ; d $ + + & g j f j j j j g g g g g g g g g f d $ $ # , H H H H H J 7 9 ] ' ' ' ' L J J < j.",
"H J I U _ ' ' ' ' ' _ ' P H H H 6 7 @ d O + + $ g g f g g g g g g g g g g g g g g g d + + @ 9 J H H H J 6 I } ' ' ' ] I H J 8 k.",
"J ) ] ' ' ' ' ' ' ' ' ) J J H 6 H - & d O + + + d j f f g g g g g g g g f f g g g g g d + O * H H H H J 6 _ ] ' ] [ ] ^ J J r z.",
"%.u U ] ' ' ' ' ' ' ' L J H 6 0 J : h + + + + + + d g f g g g g g g g d f g g g g g g g d $ @ 6 J H J 9 q } [ ] ] [ ] _ L 3 o.x.",
"x.k.t U ] ' ' ' ' ' I J 0 7 H J 9 @ h O + + + + @ @ + & d g g g g d + f j g g g g g g g g $ +   H J P 6 ^ } } } } } ' L 3 Y '.|.",
"z.z.g.8 ] ' ' ' ' I J 0 9 H H J 3 + d O + + + + + O @ @ @ + $ $ $ + $ g g g g g g g g g g f $ o , P H 6 ~ J q T R R u Y >.<X<X*X",
"|.'.z.r _ ' ' ' I H H H J H H J - & d + + + + + + $ + + @ @ @ @ + + $ g g g g g g g g g g g d O X J 0 ; 7 9 < j.j.j.v.<X<X*X*X<X",
"<X<X Xu U } _ U J J J J J J J P = d $ + + + + + + + + $ $ $ @   @ + + d g g g g g g g g g g g $ o 7 P 9 0 - W x.z.z.}.<X*X<X|.}.",
"`.*X<Xg.8 U _ L P L L P P P J H * h + + + + + + + + + + + $ @ > : @ $ + f g g g g g g g g g g d O ; P J 3 i k.z.z.z.}.<X|.`.c.c.",
"c.'.<X'.j.E Y 9 9 9 5 9 7 7 y E : d + + + + + + + + + + + + X , , . O + $ g g g g g g g g g g f $ @ q Y %.z.z.z.z.}.|.*X`.c.N.N.",
"c.`.<X`.z.x.j.t.r.*.*.r.t.j.k.x.w d + + + + + + + + + + + O   1 r E ; O + & g g g g g g g g g g d o $.x.z.z.z.z.}.<X<X<X`.c.k.s.",
"c.`.}.|.'.z.'. X X'.x.z.x.z.z.x.w d + O + + + + + + + + $ o $.v.v.).g.@ O + d g g g g g g g g g f o t z.z.N. X}.'.N.M.N.`.s.p.p.",
"s.k.c.N.}.*X*X*X*X<X}.N.z.z.z.x.i & $ O + O + + + + + + O X v.).).x.).t.# O + d g g g g g g g g g & @ j.'.|.N.s.p.a.a.p.p.p.p.p.",
"s.s.s.k.c.N.N.N.N.`.|.}.z.z.z.x.W % d + + + + + + + + + o p ).x.x.x.x.).r.@ O + d g g g g g g g g f o &.|.s.a.a.p.p.p.p.p.p.p.p.",
"s.s.s.s.p.s.k.c.c.c.N.}.|.}.`.x.*.O d O + + + + + + + $ # r.).x.x.x.x.x.).r.X + + d g g g g g g g g O s k.a.p.p.p.p.p.p.p.p.s.p."
};
